<svg xmlns="http://www.w3.org/2000/svg" xmlns:xlink="http://www.w3.org/1999/xlink" viewBox="0 0 277.02 49.65"><defs><style>.cls-1{fill:#781216;}.cls-2,.cls-30{fill:none;}.cls-3{fill:#fff;}.cls-4{fill:#0a0203;}.cls-5{fill:#ee6625;}.cls-23,.cls-6{fill:#231f20;}.cls-6{stroke:#231f20;stroke-linecap:round;stroke-linejoin:round;stroke-width:1.08px;}.cls-7{fill:#6d3624;}.cls-8{fill:#8b481e;}.cls-9{fill:#94866b;}.cls-10{fill:#27a64a;}.cls-11{fill:#55c7f1;}.cls-12{clip-path:url(#clip-path);}.cls-13{fill:#ce2b29;}.cls-14{fill:#961e20;}.cls-15{fill:#ae2225;}.cls-16{fill:#b82930;}.cls-17{fill:#bf282d;}.cls-18{fill:#b63227;}.cls-19{fill:#ca3b2a;}.cls-20{fill:#a31e23;}.cls-21{fill:#9d2222;}.cls-22{fill:#f8bc1a;}.cls-24{fill:#010101;}.cls-25{fill:#006aac;}.cls-26{fill:#abdcf5;}.cls-27{opacity:0.89;}.cls-28{fill:#f7ac1d;}.cls-29{opacity:0.35;}.cls-30{stroke:#a2c1e2;stroke-width:0.35px;}.cls-31{fill:#eab675;}.cls-32{fill:#a8736f;}.cls-33{clip-path:url(#clip-path-2);}.cls-34{fill:#e92629;}.cls-35{fill:#21afe5;}.cls-36{fill:#4d6973;}.cls-37{fill:#ece5c2;}.cls-38{fill:#f0b374;}.cls-39{opacity:0.34;}.cls-40{fill:#eee9cc;}</style><clipPath id="clip-path"><path class="cls-1" d="M159.12,15.5c-1,.08-1.27.6-1.28,1V38.84c0,.72.35.78.77.78h5.29a1.13,1.13,0,0,0,1.3-.93V32c0-.42,0-.92.29-1.21a.57.57,0,0,1,.38-.15,1.2,1.2,0,0,1,1.07.61l5.48,7.8a1.63,1.63,0,0,0,1.19.64l5,0c1.65,0,1.19-.73,1-1.09l-7.42-11.11a1.38,1.38,0,0,1,0-1.3l5.25-9.46c.44-.81,0-1.25-.42-1.28h-4.49c-1.6-.06-1.88.38-2.09.74l-3.67,7.06a12.24,12.24,0,0,1-.89,1.43c-.36.4-.49.09-.49.09s0-1,0-1.4V16.58a1,1,0,0,0-.84-1.07Z"/></clipPath><clipPath id="clip-path-2"><path class="cls-2" d="M185.46,39.81a.49.49,0,0,1-.5-.7l8-22.86a1.19,1.19,0,0,1,1-.76h6.17a1,1,0,0,1,.93.71L206.92,39a.55.55,0,0,1-.56.72l-5.71,0a.93.93,0,0,1-.88-.73l-2.34-12.17c-.1-.76-.45-1.1-.83-1.1s-.74.33-.92,1.07l-4,12.27a1.09,1.09,0,0,1-1,.71Z"/></clipPath></defs><title>logo</title><g id="Слой_2" data-name="Слой 2"><g id="Layer_2" data-name="Layer 2"><path class="cls-3" d="M14.46,3.58c-3.2.27-9.64,1.17-11.67,4.22s.28,4.21-.15,5.95S-.5,15.71.08,24.13.94,44.44,4.3,46.94C9,50.4,18.85,50.23,26.39,48.2s6.49-4.45,8.66-2.42,5.87,4.43,9.35,1.81,6.89-4.57,11-4.28S60.58,45.92,64.5,48s7.11,0,10,.44,7.51.7,10.41-2.05,5.41-1.8,9.18-1.51a81.63,81.63,0,0,0,8.51,0c3.24,0,5.07.13,7.83.08,8-.15,8.44-1.17,10.61-4.37s1.83-4.06,7.3-2.26c5.72,1.88,9.22-.58,13.1-1.28,1.66-.3,6.85-.6,9.79,3.54,2.22,3.13,3.14,4.59,10.16,4.44,5.25-.11,5.49-1.61,7.38-2.33s1.89,2.52,11.82,1.81c6.54-.47,8.46.28,11.07-.3S195.51,41,196.4,42c1.81,2.11,4.61,2.33,9,2.18s4.64-1.37,7.23-.83c1.43.3,7.2,3.28,14.3.53s9-5.25,12.25-3.37c6.87,4,10.48,4.07,16.13,4.12,7.15.08,11.29-.45,15.13-3.16,5.65-4,8.95-12.14,4.67-19.49-5.38-9.25-3.4-12.81-7.75-12-3,.57-3.88,2-5-.15s-3-6.55-4.22-6.77c-1.94-.36-4.28,4.12-6,3.69s-3.16-3.91-5.27-3.39c-1.69.42-3.11,5.75-4.73,8.26-.54.85-3.52-.66-8.6-.66s-6.49,2.4-8.08,2.4S223.05,11,216.58,11s-7.36,1.43-10.12,1.57-.07-2.38-1.4-6.54c-1.65-5.15-11-7.63-15.28-1.13-2.37,3.6.21,6.87-.84,7.92-.83.83-2.71-1.91-8.59-2.11-1.15,0-3.52,0-5.94,0-4,0-5.25,1.16-6.69,1.23s-1.5-1-5.25-1.16c-2.5-.09-5.16-.16-7.17.68-2.59,1.09-2.9,3.38-5.08,5s-5.3,2.8-8.3-1.87c-4.68-7.26-11.65-6.23-15.05-4.08-2.75,1.74.36-4.24-6.19-8.68a11.93,11.93,0,0,0-17.29,5.29c-2,4.73-6,4.63-10.47,5.33-3.94.63-8.11,2-9.66-.7-2.09-3.6-2-5.33-6.32-7.13C73,3,69.4,5,66.7,6.06c-2.26.9-4.14-1.13-9.41,1.43C53,9.59,53.58,11.41,52,11.1c-4.29-.83-8.43-1.66-13.78.75-5.91,2.67-7.89.57-8.85-3.5C28.31,3.73,20.69,3,14.46,3.58Z"/><circle class="cls-4" cx="132.06" cy="20.89" r="1.96"/><circle class="cls-4" cx="114.05" cy="11.34" r="1.96"/><path class="cls-4" d="M267.87,14.4c-.42,0-.91.47-1.35,1.25a1.81,1.81,0,0,0-.61.47,5.3,5.3,0,0,0-.89,2c-.19-.28-.42-.13-.54,0-.54.4-.83,1-1.1,2.63a.9.9,0,0,0-.53.57A4.31,4.31,0,0,0,263,24c-.23-.11-.48,0-.43.53a6.05,6.05,0,0,0-1.1-.51l-.44-.13a.24.24,0,0,0,.1-.11c.12-.31-.19-.71-.56-1a3.66,3.66,0,0,0-2-.5c.17-.08.11-.31.08-.36s-.37-.6-1.42-.63a4.33,4.33,0,0,0-1.23.14s-.12-.27-.77-.44-1,0-1-.26c.6,0,1.6,0,2-.06a13.9,13.9,0,0,0,2.6-.35,2.9,2.9,0,0,0,1.85-1.24,4.46,4.46,0,0,0,.53-2.19,2.88,2.88,0,0,0-.69-1.88,2.11,2.11,0,0,0-1.85-.58,4.2,4.2,0,0,0,.29-1.19,3.54,3.54,0,0,0-.21-1.49,1.71,1.71,0,0,0-.24-1.3,1.47,1.47,0,0,0-.22-1.11,1.2,1.2,0,0,0-.23-1s-.09-1.19-.81-1.33c-.2,0-.64.22-1,.72-.22.34-.31.83-.68,1.38a10.05,10.05,0,0,1-1.06,1.24,6,6,0,0,0-1.38,2.43,13.26,13.26,0,0,0-.35,1.51h-.69a4.64,4.64,0,0,0-.33-1.51,7.23,7.23,0,0,0-1.48-2.5,7.77,7.77,0,0,1-1-1.17,7.38,7.38,0,0,0-.74-1.46c-.5-.52-.89-.67-1.08-.59-.64.26-.66,1.37-.66,1.37a1.2,1.2,0,0,0-.23,1,1.46,1.46,0,0,0-.22,1.11,1.71,1.71,0,0,0-.24,1.3,2.77,2.77,0,0,0-.3,1.51,4,4,0,0,0,.22,1.24,6.25,6.25,0,0,0-.69.09,3.63,3.63,0,0,0-1.14.43c-.58.37-.91,1.13-1,2.52a.9.9,0,0,0,.11.48,4.08,4.08,0,0,0-.42,3.11.89.89,0,0,0,.12.25,7.15,7.15,0,0,0-.38,1.92.91.91,0,0,0,.27.7,5.71,5.71,0,0,0-.24,2.1.9.9,0,0,0,.25.53,5.29,5.29,0,0,0-.24,2.4.9.9,0,0,0,.31.59,4.44,4.44,0,0,0-.25,2.65.9.9,0,0,0,.39.52,4.11,4.11,0,0,0-.12,1.92.9.9,0,0,0,.25.45,3.49,3.49,0,0,0,.31,2.61.9.9,0,0,0,.79.47h.13a4.16,4.16,0,0,0,1,1.28.9.9,0,0,0,.57.22l.06.07a.9.9,0,0,0,.68.31h.13a4.67,4.67,0,0,0,.74-.18.91.91,0,0,0,.46.36,2.34,2.34,0,0,0,.75.11,3.34,3.34,0,0,0,1.3-.28.9.9,0,0,0,.72.57h.25a4.46,4.46,0,0,0,1.77-.42.9.9,0,0,0,.73.37h.05a6.69,6.69,0,0,0,2.09-.53l.06.1a.9.9,0,0,0,1,.35,10.43,10.43,0,0,0,2.19-1l0,0a.9.9,0,0,0,.55.19.88.88,0,0,0,.29,0,6.79,6.79,0,0,0,3.28-2.31,7.28,7.28,0,0,0,.48-1,10.43,10.43,0,0,0,2,.34A6.56,6.56,0,0,0,269.6,36a1.36,1.36,0,0,0,.53-.74,1.82,1.82,0,0,0,1.33-.95.52.52,0,0,0-.25-.66,3.6,3.6,0,0,0,1.16-1.27c.14-.33.13-.8-.4-.82a4.73,4.73,0,0,0,.89-2c0-.37,0-.93-.47-.8a11.2,11.2,0,0,0,.17-1.23,6.74,6.74,0,0,0,0-1.33c0-.39-.08-.85-.36-1s-.49.3-.49.3c0-.35.08-.53.11-.83.06-.59,0-.87-.29-.91a1.08,1.08,0,0,0-.53.13,8.73,8.73,0,0,1,0-1.2c0-.34.06-.68-.3-.78a.65.65,0,0,0-.51.17c0-.48.11-1.15.11-1.16,0-.3,0-.76-.51-.65a4.6,4.6,0,0,0,.11-.65c0-.37.06-.53-.1-.66s-.28-.1-.63.06a2.55,2.55,0,0,0,.42-.91c0-.34-.23-.42-.46-.32a3.69,3.69,0,0,0,.3-1.14c0-.78-.57-.66-.57-.66,0-.28.08-.57-.09-.68s-.38,0-.55.08C268.23,15.39,268.51,14.4,267.87,14.4Z"/><path class="cls-4" d="M251.3,40.93H251a1,1,0,0,1-.76-.54,3.44,3.44,0,0,1-1.25.25,2.44,2.44,0,0,1-.79-.12,1,1,0,0,1-.46-.34,4.7,4.7,0,0,1-.68.16,1,1,0,0,1-.9-.34l0,0a1,1,0,0,1-.58-.24,4.31,4.31,0,0,1-1-1.25h-.07a1,1,0,0,1-.88-.53,3.57,3.57,0,0,1-.33-2.63,1,1,0,0,1-.23-.45,4.21,4.21,0,0,1,.1-1.89,1,1,0,0,1-.37-.53,4.5,4.5,0,0,1,.23-2.64,1,1,0,0,1-.29-.61,5.41,5.41,0,0,1,.23-2.39,1,1,0,0,1-.24-.54,5.72,5.72,0,0,1,.23-2.09,1,1,0,0,1-.26-.74,7.29,7.29,0,0,1,.37-1.9,1,1,0,0,1-.1-.24,4.15,4.15,0,0,1,.4-3.14,1,1,0,0,1-.09-.49c.08-1.38.41-2.2,1-2.6a3.76,3.76,0,0,1,1.17-.44c.21,0,.42-.07.58-.08a3.72,3.72,0,0,1-.19-1.15,2.89,2.89,0,0,1,.3-1.52,1.84,1.84,0,0,1,.24-1.3,1.6,1.6,0,0,1,.22-1.11,1.32,1.32,0,0,1,.23-1c0-.21.1-1.16.72-1.42.26-.11.73.12,1.19.61a3.14,3.14,0,0,1,.52,1,5.08,5.08,0,0,0,.23.51,2.69,2.69,0,0,0,.55.66,6.13,6.13,0,0,1,.47.49,7.3,7.3,0,0,1,1.5,2.54,5.68,5.68,0,0,1,.33,1.44h.5a12.14,12.14,0,0,1,.34-1.44l0-.06a6,6,0,0,1,1.38-2.41l.13-.14a8.63,8.63,0,0,0,.92-1.09,4.59,4.59,0,0,0,.42-.84,3.18,3.18,0,0,1,.26-.54c.36-.55.83-.81,1.07-.76.72.14.87,1.17.89,1.39a1.32,1.32,0,0,1,.23,1,1.6,1.6,0,0,1,.22,1.11,1.83,1.83,0,0,1,.24,1.3,3.75,3.75,0,0,1,.21,1.52,4.37,4.37,0,0,1-.24,1.07,2.16,2.16,0,0,1,1.77.62,3,3,0,0,1,.72,2,4.57,4.57,0,0,1-.54,2.23A3,3,0,0,1,259,20.46a14.1,14.1,0,0,1-2.61.35c-.14,0-.76,0-1.35.06l.3.06a1.46,1.46,0,0,1,.79.42,4.46,4.46,0,0,1,1.19-.13c1,0,1.35.39,1.5.69a.47.47,0,0,1,0,.32,3.56,3.56,0,0,1,1.82.51c.49.38.71.8.59,1.11v0l.28.09a6.47,6.47,0,0,1,1,.43.58.58,0,0,1,.13-.38.34.34,0,0,1,.25-.11,4.43,4.43,0,0,1-.12-2.61,1,1,0,0,1,.54-.62c.26-1.55.55-2.22,1.13-2.64a.59.59,0,0,1,.34-.14.35.35,0,0,1,.2.06,5.22,5.22,0,0,1,.87-1.89,2.06,2.06,0,0,1,.62-.5c.46-.81,1-1.27,1.42-1.27a.47.47,0,0,1,.39.18,1,1,0,0,1,.1.74.54.54,0,0,1,.47,0c.2.13.18.39.15.66.17,0,.53.12.56.76a3,3,0,0,1-.25,1,.37.37,0,0,1,.3.12.44.44,0,0,1,.1.35,1.81,1.81,0,0,1-.28.71.49.49,0,0,1,.46.06c.18.15.16.34.14.66v.09a4,4,0,0,1-.08.52.46.46,0,0,1,.37.14.83.83,0,0,1,.11.64s-.06.52-.1.95a.67.67,0,0,1,.42-.07c.44.11.4.53.38.87a10.43,10.43,0,0,0,0,1,1.57,1.57,0,0,1,.4-.08h0c.43.05.42.51.37,1,0,.16,0,.29-.06.43l0,.11a.39.39,0,0,1,.39-.11c.32.13.37.57.41,1v.09a6.88,6.88,0,0,1,0,1.35,10.26,10.26,0,0,1-.15,1.11h0a.38.38,0,0,1,.29.13,1.14,1.14,0,0,1,.15.8,5,5,0,0,1-.81,1.91.5.5,0,0,1,.31.21.78.78,0,0,1,0,.71,3.54,3.54,0,0,1-1.07,1.23.62.62,0,0,1,.17.24.61.61,0,0,1,0,.47,1.94,1.94,0,0,1-1.34,1,1.46,1.46,0,0,1-.54.73,6.6,6.6,0,0,1-3.88.92,9,9,0,0,1-1.76-.29l-.13,0a6.83,6.83,0,0,1-.45,1,6.87,6.87,0,0,1-3.33,2.35,1,1,0,0,1-.87-.11,10.86,10.86,0,0,1-2.18,1,1,1,0,0,1-1.14-.39l0,0a6.75,6.75,0,0,1-2,.5,1,1,0,0,1-.82-.35A4.51,4.51,0,0,1,251.3,40.93Zm-.91-.81,0,.1a.8.8,0,0,0,.64.51h.23a4.37,4.37,0,0,0,1.73-.41l.07,0,0,.07a.8.8,0,0,0,.65.33h0a6.52,6.52,0,0,0,2.05-.52l.08,0,0,.08.05.09a.81.81,0,0,0,.91.31,10.36,10.36,0,0,0,2.16-1l.06,0,.08,0a.81.81,0,0,0,.74.12,6.66,6.66,0,0,0,3.22-2.27,7.33,7.33,0,0,0,.47-1l0-.08.3.07a8.9,8.9,0,0,0,1.72.29,6.55,6.55,0,0,0,3.75-.87,1.26,1.26,0,0,0,.5-.69l0-.05h.05a1.79,1.79,0,0,0,1.26-.89.41.41,0,0,0,0-.31.38.38,0,0,0-.19-.22l-.16-.07.14-.1a3.57,3.57,0,0,0,1.12-1.23.6.6,0,0,0,0-.53.37.37,0,0,0-.33-.15h-.2l.13-.16a4.67,4.67,0,0,0,.87-1.94.94.94,0,0,0-.1-.64.22.22,0,0,0-.25,0l-.16,0,0-.16a11.19,11.19,0,0,0,.17-1.22,6.57,6.57,0,0,0,0-1.3v-.1c0-.33-.08-.71-.29-.79h0s-.15,0-.34.26l0,0h-.17v-.11c0-.17,0-.29.06-.42s0-.26.06-.42c.06-.65,0-.78-.2-.8h0a1.17,1.17,0,0,0-.44.1l-.16.23,0-.29a9,9,0,0,1,0-1.22c0-.37,0-.6-.23-.67h0a.59.59,0,0,0-.37.15l-.19.19,0-.27c0-.47.11-1.15.12-1.16a.64.64,0,0,0-.06-.48.33.33,0,0,0-.33-.05l-.16,0,0-.15a4.44,4.44,0,0,0,.11-.63v-.09c0-.31,0-.41-.07-.49s-.26,0-.52.07l-.21.09.08-.22.07-.12a2,2,0,0,0,.34-.77.26.26,0,0,0,0-.2.18.18,0,0,0-.13-.05l-.14,0L269,18l.13-.37a2.91,2.91,0,0,0,.24-.94c0-.5-.26-.57-.4-.57h0l-.14,0,0-.14c0-.26.07-.51-.05-.59s-.3,0-.45.08l-.2.09.05-.21a1.08,1.08,0,0,0,0-.76.27.27,0,0,0-.23-.1c-.37,0-.84.45-1.26,1.2l0,0h0a1.8,1.8,0,0,0-.55.44,5.18,5.18,0,0,0-.87,2l-.05.22-.13-.19c-.08-.12-.15-.12-.17-.12a.43.43,0,0,0-.22.1c-.54.4-.8,1-1.06,2.57v.06l-.05,0a.8.8,0,0,0-.47.51,4.22,4.22,0,0,0,.18,2.65l.1.24-.23-.11a.18.18,0,0,0-.22,0,.53.53,0,0,0-.08.41l0,.2-.17-.11a5.92,5.92,0,0,0-1.07-.5l-.43-.13-.24-.06.22-.12a.15.15,0,0,0,.06-.06c.1-.26-.2-.62-.53-.87a3.61,3.61,0,0,0-1.9-.48l0-.19a.08.08,0,0,0,0-.05.28.28,0,0,0,0-.17c-.13-.25-.46-.55-1.34-.58a4.3,4.3,0,0,0-1.2.14l-.08,0,0-.08s-.12-.23-.71-.38a3,3,0,0,0-.65-.1c-.17,0-.28,0-.35-.1a.23.23,0,0,1,0-.17v-.1h.1c.66,0,1.83,0,2-.06a14,14,0,0,0,2.58-.35,2.77,2.77,0,0,0,1.79-1.19,4.36,4.36,0,0,0,.52-2.14,2.77,2.77,0,0,0-.66-1.81,2,2,0,0,0-1.77-.55h-.16l.06-.15a4.15,4.15,0,0,0,.28-1.16,3.46,3.46,0,0,0-.2-1.43l0,0v0a1.61,1.61,0,0,0-.22-1.22l0,0v0a1.38,1.38,0,0,0-.2-1l0,0v0a1.09,1.09,0,0,0-.2-.91l0,0v0s-.09-1.12-.73-1.24h0a1.34,1.34,0,0,0-.86.67,3,3,0,0,0-.24.5,4.83,4.83,0,0,1-.44.88,8.71,8.71,0,0,1-.94,1.12l-.13.14a5.8,5.8,0,0,0-1.33,2.34l0,.06a13.14,13.14,0,0,0-.35,1.49v.08h-.88v-.11a4.67,4.67,0,0,0-.32-1.47,7.12,7.12,0,0,0-1.46-2.47,5.93,5.93,0,0,0-.46-.48,2.84,2.84,0,0,1-.59-.71,4.9,4.9,0,0,1-.24-.54,3,3,0,0,0-.48-.91c-.51-.54-.82-.58-.9-.58h-.07c-.57.24-.6,1.27-.6,1.28v0l0,0a1.09,1.09,0,0,0-.19.91v0l0,0a1.38,1.38,0,0,0-.2,1v0l0,0a1.61,1.61,0,0,0-.22,1.22v0l0,0a2.69,2.69,0,0,0-.29,1.46,3.89,3.89,0,0,0,.22,1.21l0,.12h-.12a6.15,6.15,0,0,0-.68.09,3.54,3.54,0,0,0-1.11.41c-.57.36-.87,1.13-.95,2.44a.81.81,0,0,0,.09.43l0,0,0,0a4,4,0,0,0-.41,3,.8.8,0,0,0,.1.23l0,0,0,0a7.07,7.07,0,0,0-.38,1.89.81.81,0,0,0,.24.62l0,0,0,.06a5.55,5.55,0,0,0-.23,2.07.8.8,0,0,0,.22.47l0,0,0,.06a5.18,5.18,0,0,0-.24,2.36.79.79,0,0,0,.28.52l.05,0,0,.07a4.34,4.34,0,0,0-.25,2.58.8.8,0,0,0,.35.46l.06,0,0,.07a4.07,4.07,0,0,0-.12,1.87.8.8,0,0,0,.22.4l0,0v.06a3.39,3.39,0,0,0,.3,2.54.8.8,0,0,0,.82.41h.07l0,.07a4,4,0,0,0,.95,1.25.8.8,0,0,0,.5.19h.05l0,0,.05.07a.8.8,0,0,0,.72.27,4.56,4.56,0,0,0,.72-.17l.07,0,0,.06a.81.81,0,0,0,.41.32,2.23,2.23,0,0,0,.72.11,3.26,3.26,0,0,0,1.27-.27Z"/><path class="cls-5" d="M256.82,20a8,8,0,0,0,2.29-.41,2,2,0,0,0,1.28-1.22,3.51,3.51,0,0,0,.29-1.71,2.31,2.31,0,0,0-.42-1.25c-.42-.52-1.81-.42-2.48-.37a3.49,3.49,0,0,0,.68-1.7c-.14.34-1.35.86-1.39.85.23-.36,1.66-1.9,1.23-3.2a3.84,3.84,0,0,1-1.38,1.57c.42-.84,1.2-2.39.91-3.16a4.41,4.41,0,0,1-1.37,1.53c.58-1.22,1.22-2.68.89-3-.56.2-.67,1.31-1,1.71-.93,1.18-2.35,1.6-2.65,5.4h-2.14c-.28-3.83-1.63-4.22-2.56-5.4-.32-.41-.48-1.51-1-1.71-.33.35.42,2,1,3.19a5.7,5.7,0,0,1-1.53-1.77c-.29.77.65,2.52,1.06,3.36A4.16,4.16,0,0,1,247.06,11c-.43,1.3,1,3,1.19,3.35a4.83,4.83,0,0,1-1.39-1.08,2.91,2.91,0,0,0,.66,1.78l-1.07.07c-1.2.14-2.25.62-2.22,2.31,0,0,1.5-1,1-.26A5,5,0,0,0,243.75,21s.41-.83.58-1.09a1.35,1.35,0,0,1,1-.63c-.25,1.08-1.41,2-1.55,4,0,0,1-1.68,1.21-1.64s.15.67-.13,1.08A5.8,5.8,0,0,0,243.72,26s.71-1.24,1.25-1.23c.25,0,0,.44-.51,1.29a4.48,4.48,0,0,0-.78,2.83s.91-1.12,1.33-.91c.09,0-.26.59-.55,1.07a5.3,5.3,0,0,0-.78,3.09s1-1.4,1.41-1.24c.18.07-.09.47-.4,1a4.71,4.71,0,0,0-.76,2.73s.93-1.49,1.26-1c.06.09-.19.32-.47.89a3.28,3.28,0,0,0-.21,2.85s.26-1.38.94-1.38a2.46,2.46,0,0,0,0,1.67,4.88,4.88,0,0,0,.69,1.3s.07-1.34.59-1.32.61.72.3,1.73a3.41,3.41,0,0,0,1.16-.4c.44-.28.67-.7.94-.7s.29.68-.46,1.33a2.24,2.24,0,0,0,1.76-.32,7.21,7.21,0,0,1,1.43-.84c.33,0,.83.5-.49,1.46a4.79,4.79,0,0,0,3-1.33c.3.3.15.84-.44,1.35a5.61,5.61,0,0,0,2.39-.78c.53-.34,1-.79,1.2-.45s-.62,1.1-.62,1.1a10.15,10.15,0,0,0,1.88-.83c1.23-.89,1.46-1.21,1.69-1.2.46,0-.32,1.27-.32,1.27a5.91,5.91,0,0,0,2.49-2.09,8.35,8.35,0,0,0,.84-1.39,6,6,0,0,0,5.63-.25c-.52-.07-.71-.27-.67-.46s.25-.12.26-.13c1.46.06,1.89-.53,1.89-.53-.9,0-1.12-.4-1.1-.57s.17-.11.29-.13a2.81,2.81,0,0,0,1.83-1.2.9.9,0,0,1-1.2-.19,4.74,4.74,0,0,0,1.75-2.41c-.94.89-1.53.94-1.48.85A4.76,4.76,0,0,0,271.78,28c.09-.9.12-1.63.12-1.63-.48.81-1.08,1.69-.93.82s.27-2.52.27-2.52c-.45.12-.85,1.28-.85,1.28-.33-.64.12-3.07.12-3.07a3.65,3.65,0,0,0-.93,1.51,10.73,10.73,0,0,1,.19-3.34s-.21.1-.55.68a8.19,8.19,0,0,0-.43,1.14,3.28,3.28,0,0,1,.19-1.71,10.93,10.93,0,0,0,.4-1.47s-.29,0-.73.52c-.11.14-.34.46-.43.6.09-.28.15-.68.25-1.07a12.94,12.94,0,0,1,.44-1.34,4.67,4.67,0,0,0-.77.54,4.69,4.69,0,0,0,.63-2l-.84,1a8.16,8.16,0,0,1,.31-1.75,1.86,1.86,0,0,0-.8,1,10.52,10.52,0,0,1,.23-1.82,5.9,5.9,0,0,0-1.23,3,10.82,10.82,0,0,1,.1-2.07,9.5,9.5,0,0,0-1.41,4.83,3.56,3.56,0,0,1-.43-2.21s-.41.24-.58,2.14c0,.33.29,1.45.31,1.79a2.5,2.5,0,0,1-.89-1.47,3.93,3.93,0,0,0,1.32,3.6s-.4.11-1.43-.42a4.67,4.67,0,0,0,.85,1.43,5.38,5.38,0,0,0,.74.62c.61.59-1.09-.1-1.09-.1a3.49,3.49,0,0,0,.68,1.69c.62.86.83,1.08.57,1.3s-.61-.35-1-.65a11.23,11.23,0,0,1,.35,1.85c0,.13,0,.25,0,.37v0a3.1,3.1,0,0,1,0,.37.5.5,0,0,1-.41.42c-.34,0-.3-.47-.3-.47h0a7.65,7.65,0,0,0-1.41-4.61,4.78,4.78,0,0,0-.56-.72c.15-.33.86-.19.86-.19a2,2,0,0,0-1.42-1.07,3.61,3.61,0,0,1-1.39-.48c-.72-.51.51-.69.51-.69a2.82,2.82,0,0,0-2.13-.6c-1.38,0-1.12-.5-.42-.75a2.11,2.11,0,0,0-1.83,0c-1.21.45-2.12,0-1-.5a3.36,3.36,0,0,0-2.21,0c-.63.18-1.37.14-1,0a13.18,13.18,0,0,0,1.13-.71s-4.7.2-4.37-1.33l1.32.17A36.24,36.24,0,0,0,256.82,20Z"/><path class="cls-6" d="M257.94,29.53"/><path class="cls-4" d="M258.42,25.09h0a.72.72,0,0,0,.8-.72v-.43a.74.74,0,0,0-.63-.71h-.16a2.56,2.56,0,0,0-2.14,1.41,3.6,3.6,0,0,0-1.92-.69l-.22,0a.77.77,0,0,0-.4.19,4.17,4.17,0,0,0-.54,0,7.64,7.64,0,0,0-3.24.83,5.63,5.63,0,0,0-3.53,5.21,10.82,10.82,0,0,0,.63,3.29c.3.88.51,1.45.58,1.76a1.36,1.36,0,0,0,.43.82,1.57,1.57,0,0,0,1,.26,4.7,4.7,0,0,1,1,.13,9,9,0,0,0,2.18.27,7.15,7.15,0,0,0,2.6-.46c4.36-1.7,4-6.55,4-6.6a.54.54,0,0,0-.56-.49h-.28c-1.34,0-1.83-.42-2.91-1.35a1.51,1.51,0,0,1-.45-1l0,0a.81.81,0,0,0,.56.65,1,1,0,0,0,.25.3,1,1,0,0,0,.37.2.84.84,0,0,0,.62.34,1,1,0,0,0,.8.4h.11a.83.83,0,0,0,.44.13,1,1,0,0,0,.78-.42.72.72,0,0,0,.13-.57,4.94,4.94,0,0,0-1-2C257.94,25.44,258.24,25.09,258.42,25.09Z"/><path class="cls-7" d="M258.22,29.61s.38,4.44-3.62,6a7.48,7.48,0,0,1-4.42.16c-.86-.22-1.45-.07-1.7-.27s-.1-.61-.88-2.22a9.52,9.52,0,0,1-.56-3.15,5.07,5.07,0,0,1,3.19-4.72c2.24-1.06,3.65-.75,3.85-.64s-.57,2.36.6,3.37S256.48,29.68,258.22,29.61Z"/><path class="cls-8" d="M253.8,35.86a6.71,6.71,0,0,1-2.42.13c-.47-.05-1.36-.26-1.8-.3-.75-.08-1.14.07-1.28-.42s-.29-1-.45-1.43a6.06,6.06,0,0,1-.53-1.41,11.64,11.64,0,0,1-.28-2.21,11.71,11.71,0,0,0,1.26,3,4.65,4.65,0,0,0,2.25,1.8A12.46,12.46,0,0,0,253.8,35.86Z"/><path class="cls-9" d="M257.94,29.53"/><path class="cls-10" d="M258.68,23.94a.19.19,0,0,0-.16-.18h-.09c-.31,0-1.28.13-2,1.67a3.55,3.55,0,0,0-2.11-1h-.14a.22.22,0,0,0-.2.2.14.14,0,0,0,0,0,3.88,3.88,0,0,0-.92-.12,3.13,3.13,0,0,0-.6.06h0a.19.19,0,0,0-.08.34l1,.73a4.6,4.6,0,0,1-.77.56.19.19,0,0,0,0,.33l1.3.58a3,3,0,0,1-.19.48,3.22,3.22,0,0,0-.15.35.27.27,0,0,0,0,.25.28.28,0,0,0,.24.11,1.46,1.46,0,0,0,.27,0l.25,0h0a1,1,0,0,0,.39.09.81.81,0,0,1,.4.1h0a.36.36,0,0,0-.16.25.27.27,0,0,0,.09.21.5.5,0,0,1,.08.14.42.42,0,0,0,.48.32h0l.24,0c.13,0,.18,0,.2.15a.58.58,0,0,0,.58.48.53.53,0,0,0,.35-.12l.06-.06.09-.09a.61.61,0,0,1,0,.1c.1.3.3.34.41.34a.67.67,0,0,0,.43-.21.19.19,0,0,0,.05-.14,6.53,6.53,0,0,0-.32-1.59.61.61,0,0,0,.14-.14.19.19,0,0,0,0-.15A4.77,4.77,0,0,0,257,26c.3-.6.82-1.4,1.38-1.4h.06a.19.19,0,0,0,.21-.19Z"/><path class="cls-5" d="M245.74,25a9.68,9.68,0,0,0,2.71,1.44,8.28,8.28,0,0,0,1.88.25,2.26,2.26,0,0,1,1.7.6c.81.57.19,1.33-.27,1.19a9.5,9.5,0,0,1-1.1-.58s1,.82,1.08,1.15c.08.59-.36.77-1.17.45a4.43,4.43,0,0,1-.71-.4s.84.39.9.84c.08.64-.59.94-1.19.52a18.26,18.26,0,0,1-1.75-1.2A9.43,9.43,0,0,0,246,28.16"/><path class="cls-4" d="M250.14,30.81a1.18,1.18,0,0,1-.66-.22c-.21-.15-.42-.28-.63-.41a8.51,8.51,0,0,1-1.13-.8,9.31,9.31,0,0,0-1.83-1.06A.17.17,0,0,1,246,28a9.48,9.48,0,0,1,1.92,1.12,8.13,8.13,0,0,0,1.09.77c.21.13.43.27.64.42a.69.69,0,0,0,.73.09.43.43,0,0,0,.19-.45.77.77,0,0,0-.32-.41,5.24,5.24,0,0,1-.51-.31.17.17,0,0,1,.17-.3,3,3,0,0,1,.53.32l.18.08c.39.16.71.19.85.08a.36.36,0,0,0,.08-.35,3.87,3.87,0,0,0-1-1,.17.17,0,0,1,0-.22.17.17,0,0,1,.21-.08,2.48,2.48,0,0,1,.44.25,2.54,2.54,0,0,0,.65.33.38.38,0,0,0,.4-.23c.11-.22,0-.46-.28-.66a2,2,0,0,0-1.45-.57h-.16a8.51,8.51,0,0,1-1.92-.25,9.72,9.72,0,0,1-2.78-1.47.17.17,0,1,1,.21-.28,9.57,9.57,0,0,0,2.65,1.41,8,8,0,0,0,1.85.25h.15a2.39,2.39,0,0,1,1.64.63.85.85,0,0,1,.39,1.09.72.72,0,0,1-.81.41h0a.88.88,0,0,1,.21.38.67.67,0,0,1-.21.66.94.94,0,0,1-.79.09.61.61,0,0,1,0,.13.77.77,0,0,1-.35.79A.84.84,0,0,1,250.14,30.81Z"/><path class="cls-5" d="M259.91,27.65a5.4,5.4,0,0,1-3.24-.32,2.59,2.59,0,0,0-1.87.27c-.9.42-.73.95-.25,1a10.23,10.23,0,0,1,1.36-.07s-1.09.25-1.4.75.2.9,1,.6.59-.14.59-.14a3.44,3.44,0,0,0-.74.47c-.53.44,0,1.13.87.78s.91-.67,1.69-.6a12.5,12.5,0,0,0,2.35-.21"/><path class="cls-4" d="M255.8,31.24a.83.83,0,0,1-.72-.36.6.6,0,0,1,.11-.76.89.89,0,0,1-.83-.24.59.59,0,0,1,0-.71,1.36,1.36,0,0,1,.46-.42h-.29a.55.55,0,0,1-.55-.41c0-.15,0-.55.74-.9a2.74,2.74,0,0,1,2-.27l.58.16a4.36,4.36,0,0,0,2.57.15.17.17,0,0,1,.06.34,4.68,4.68,0,0,1-2.72-.15l-.59-.17a2.47,2.47,0,0,0-1.75.25c-.4.19-.56.4-.54.52s.1.12.23.13a3.06,3.06,0,0,0,.6,0,2.09,2.09,0,0,1,.78,0,.17.17,0,0,1,0,.34,2.5,2.5,0,0,0-1.29.67.26.26,0,0,0,0,.31c.1.13.41.19.84,0,.61-.22.75-.25.83-.09a.19.19,0,0,1-.09.26,3.46,3.46,0,0,0-.72.46c-.14.12-.18.26-.11.38s.42.27.8.11a5.07,5.07,0,0,0,.64-.33,1.62,1.62,0,0,1,1.13-.29,12.36,12.36,0,0,0,2.31-.21.17.17,0,0,1,.2.14.17.17,0,0,1-.14.2,12.5,12.5,0,0,1-2.4.22,1.25,1.25,0,0,0-.93.24,5.45,5.45,0,0,1-.68.35A1.3,1.3,0,0,1,255.8,31.24Z"/><path class="cls-4" d="M57,23.41c-1.77-7.88-7.67-9.06-11-9.06a14.66,14.66,0,0,0-2.08.15c-2.73.39-3.78.81-4.27,2.38v0l-.49,1.76a1.67,1.67,0,0,0,.12,1.45,1.15,1.15,0,0,0,1,.48h.11l.43,0a2.68,2.68,0,0,1,.7.1,1.92,1.92,0,0,1,1.16.91l0,.05a1.26,1.26,0,0,0,1,.63l.2,0h.18c.19,0,1.88,0,2.39,1.34a1.6,1.6,0,0,1,0,1.39c-.09.13-.21.25-.62.25A4.83,4.83,0,0,1,44.59,25l-.71-.23a5.55,5.55,0,0,0-1.61-.41c-1,0-1.44.94-2,2.36-.35.86-.88,2.15.19,2.77a26.51,26.51,0,0,0,2.71,1.2l.72.29c.93.39,1.21.76,1.23.9s-.09.38-.6.79a3.18,3.18,0,0,1-1.93.58,3.78,3.78,0,0,1-2.89-1.31.88.88,0,0,0-.62-.31,2.1,2.1,0,0,1-1.11-.5,4,4,0,0,1-.74-.85,1.61,1.61,0,0,0-1.31-.7,1.28,1.28,0,0,0-1.21.78c-.08.16-.35.75-.45,1s-.29.7-.47,1.11l-.28.66,0,0a2.3,2.3,0,0,0,.28,2.64,18.79,18.79,0,0,0,5.6,4l-1.61,3.78v0a1.24,1.24,0,0,0,0,1A3.28,3.28,0,0,0,39.53,46,4.18,4.18,0,0,0,41,46.3a1.4,1.4,0,0,0,1.43-.8l2-4.59a12.79,12.79,0,0,0,7.66-2.69C56.5,34.86,58.07,28.05,57,23.41Z"/><path class="cls-4" d="M41,46.55a4.43,4.43,0,0,1-1.58-.33,3.52,3.52,0,0,1-1.9-1.56,1.49,1.49,0,0,1,0-1.14L39,39.94a19.33,19.33,0,0,1-5.46-4,2.46,2.46,0,0,1-.33-2.91l.26-.62,0-.09c.18-.4.37-.86.47-1.1s.38-.85.46-1a1.52,1.52,0,0,1,1.43-.92,1.87,1.87,0,0,1,1.52.81,3.77,3.77,0,0,0,.7.81,1.86,1.86,0,0,0,1,.44,1.13,1.13,0,0,1,.79.4A3.53,3.53,0,0,0,42.57,33a2.92,2.92,0,0,0,1.77-.53c.46-.38.5-.58.5-.59a2.58,2.58,0,0,0-1.08-.68l-.72-.29a26.58,26.58,0,0,1-2.74-1.21c-1.25-.72-.65-2.2-.29-3.08.6-1.46,1.1-2.5,2.24-2.51h0a5.77,5.77,0,0,1,1.7.42l.7.22a4.61,4.61,0,0,0,1.15.21c.31,0,.37-.08.42-.15a1.36,1.36,0,0,0,0-1.15c-.45-1.15-2-1.18-2.16-1.18h-.14l-.24,0a1.51,1.51,0,0,1-1.24-.73c-.38-.52-.62-.76-1-.86a2.75,2.75,0,0,0-1.05-.07,1.36,1.36,0,0,1-1.28-.58,1.92,1.92,0,0,1-.15-1.68l.49-1.75c.55-1.76,1.77-2.2,4.48-2.59A14.91,14.91,0,0,1,46,14.1c3.43,0,9.46,1.2,11.27,9.25,1.06,4.72-.55,11.64-5.07,15.06a13.07,13.07,0,0,1-7.64,2.74L42.67,45.6A1.64,1.64,0,0,1,41,46.55ZM35.9,29.83a1,1,0,0,0-1,.63c-.08.17-.35.74-.45,1s-.29.71-.47,1.12l0,.09-.24.56a2.05,2.05,0,0,0,.2,2.41,18.61,18.61,0,0,0,5.53,4l.23.1-1.71,4a1,1,0,0,0,0,.77,3.11,3.11,0,0,0,1.63,1.29A3.93,3.93,0,0,0,41,46a1.16,1.16,0,0,0,1.2-.64l2-4.74h.16A12.54,12.54,0,0,0,51.9,38c4.36-3.3,5.91-10,4.88-14.55C55.05,15.75,49.29,14.6,46,14.6a14.41,14.41,0,0,0-2,.15c-2.84.41-3.64.84-4.06,2.21l-.49,1.78A1.45,1.45,0,0,0,39.49,20a.9.9,0,0,0,.84.37,3.18,3.18,0,0,1,1.2.08,2.15,2.15,0,0,1,1.31,1l0,.06a1,1,0,0,0,.83.52h.38c.21,0,2.05,0,2.63,1.5a1.82,1.82,0,0,1-.07,1.62.87.87,0,0,1-.83.36,5,5,0,0,1-1.29-.22L43.8,25a5.67,5.67,0,0,0-1.52-.39c-.79,0-1.17.66-1.8,2.2-.42,1-.73,2,.08,2.45a26.32,26.32,0,0,0,2.66,1.18l.74.3c.81.34,1.33.75,1.38,1.1s-.21.63-.68,1a3.44,3.44,0,0,1-2.08.64,4,4,0,0,1-3.08-1.4.63.63,0,0,0-.45-.23,2.32,2.32,0,0,1-1.26-.57,4.26,4.26,0,0,1-.78-.89A1.36,1.36,0,0,0,35.9,29.83Z"/><path class="cls-11" d="M4.54,29.47h0a.18.18,0,0,1-.17-.19c0-.18.27-1.75,7.89-3,10.61-1.78,17.54-.08,17.61-.07a.18.18,0,0,1-.09.34c-.07,0-6.93-1.69-17.46.07-7.3,1.22-7.6,2.69-7.6,2.7a.17.17,0,0,1-.18.17Z"/><path class="cls-4" d="M115.94,38.06l-.59-1.82,0-.09a2.1,2.1,0,0,1-.14-.69l.26-18.1a2.3,2.3,0,0,0-2-2.38l-.43-.06a5.38,5.38,0,0,1,.63-2A1,1,0,0,0,114,13a1.56,1.56,0,1,0-1.55-1.78,5.38,5.38,0,0,0-2,3.33l-.21,0-.32,0a3,3,0,0,0-2.23,1L99.38,25.8l.06-9.07a2.2,2.2,0,0,0-2.2-2.2h-.09l-4.92.2A2.25,2.25,0,0,0,90.09,17l.2,18.42v0a1.86,1.86,0,0,1-.15.62l-.06.11L89.46,38a1.92,1.92,0,0,0,.06,1.8,1.94,1.94,0,0,0,1.7.92h8a1.87,1.87,0,0,0,1.65-2.89l0-.08,4.67-5.13.06,4a1.72,1.72,0,0,1-.16.58l-.41.67a1.87,1.87,0,0,0,1.63,2.9h7.51a1.87,1.87,0,0,0,1.79-2.66Z"/><path class="cls-4" d="M180.43,38l-7.49-11a.49.49,0,0,1,0-.29s4.23-7.49,5.34-9.58a1.83,1.83,0,0,0,.34-1.49,1.74,1.74,0,0,0-1.78-1.14h-5.33a1.89,1.89,0,0,0-2.05,1.21l0,.09L166.26,22V16.36a1.88,1.88,0,0,0-1.94-1.84h-5.56a2.27,2.27,0,0,0-1.94,2v8.54c0,.21,0,.47,0,.73h-1.08c0-.08,0-.14,0-.22A3.84,3.84,0,0,0,152,21.67a3.83,3.83,0,0,0-3.94,3.71,3.76,3.76,0,0,0,.12,1.06,2.45,2.45,0,0,0,0,2.55,3.78,3.78,0,0,0-.23,1.2,3.84,3.84,0,0,0,3.7,3.94h.12a3.83,3.83,0,0,0,3.82-3.72,3.45,3.45,0,0,0,0-.39h1.24v8.82a1.9,1.9,0,0,0,.5,1.36,1.49,1.49,0,0,0,1.08.45h5.76a2.14,2.14,0,0,0,2-1.95V31.95l5.38,7.65a3,3,0,0,0,2.17,1.08h0l5.59,0h0a1.36,1.36,0,0,0,1.24-.71A2,2,0,0,0,180.43,38Z"/><path class="cls-4" d="M173.74,40.93h0a3.26,3.26,0,0,1-2.37-1.19l-4.92-7v6a2.4,2.4,0,0,1-2.29,2.2h-5.76a1.74,1.74,0,0,1-1.26-.53,2.15,2.15,0,0,1-.57-1.54V30.27h-.73s0,.1,0,.15a4.08,4.08,0,0,1-4.07,4h-.12A4.08,4.08,0,0,1,147.9,29a2.61,2.61,0,0,1-.31-1.34,2.66,2.66,0,0,1,.36-1.28,4,4,0,0,1-.1-1,4.07,4.07,0,0,1,4.07-4H152a4.09,4.09,0,0,1,4,4.15h.57c0-.17,0-.34,0-.49V16.55a2.52,2.52,0,0,1,2.19-2.28h5.52a2.15,2.15,0,0,1,2.23,2.08v4.58l2.71-5.29a2.13,2.13,0,0,1,2.29-1.37h5.4a2,2,0,0,1,1.94,1.31,2,2,0,0,1-.33,1.65c-1.12,2.11-5.32,9.55-5.36,9.62h0s0,.06,0,.08l7.47,10.91a2.29,2.29,0,0,1,.16,2.22,1.61,1.61,0,0,1-1.46.84Zm-7.81-9.77,5.83,8.3a2.79,2.79,0,0,0,2,1v0l5.59,0a1.13,1.13,0,0,0,1-.58,1.78,1.78,0,0,0-.14-1.7l-7.49-10.95a.71.71,0,0,1,0-.54c.05-.09,4.25-7.53,5.35-9.59.27-.5.46-.87.32-1.29a1.48,1.48,0,0,0-1.46-1h-5.35c-1.27,0-1.65.51-1.87,1.06l0,.11-3.15,6.14L166,22V16.36a1.64,1.64,0,0,0-1.69-1.59h-5.56a2,2,0,0,0-1.69,1.78v8.53c0,.21,0,.47,0,.73v.25h-1.61l0-.27c0-.07,0-.13,0-.2A3.59,3.59,0,0,0,152,21.92h-.11a3.58,3.58,0,0,0-3.57,3.47,3.5,3.5,0,0,0,.12,1l0,.11-.06.09a2.2,2.2,0,0,0,0,2.27l.07.1,0,.11a3.55,3.55,0,0,0-.21,1.12,3.59,3.59,0,0,0,3.46,3.68h.11a3.58,3.58,0,0,0,3.57-3.47,3.21,3.21,0,0,0,0-.36l0-.27h1.75v9.07a1.65,1.65,0,0,0,.43,1.19,1.25,1.25,0,0,0,.9.38h5.76a1.88,1.88,0,0,0,1.79-1.71Z"/><path class="cls-1" d="M159.12,15.5c-1,.08-1.27.6-1.28,1V38.84c0,.72.35.78.77.78h5.29a1.13,1.13,0,0,0,1.3-.93V32c0-.42,0-.92.29-1.21a.57.57,0,0,1,.38-.15,1.2,1.2,0,0,1,1.07.61l5.48,7.8a1.63,1.63,0,0,0,1.19.64l5,0c1.65,0,1.19-.73,1-1.09l-7.42-11.11a1.38,1.38,0,0,1,0-1.3l5.25-9.46c.44-.81,0-1.25-.42-1.28h-4.49c-1.6-.06-1.88.38-2.09.74l-3.67,7.06a12.24,12.24,0,0,1-.89,1.43c-.36.4-.49.09-.49.09s0-1,0-1.4V16.58a1,1,0,0,0-.84-1.07Z"/><g class="cls-12"><rect class="cls-13" x="148.7" y="3.94" width="3.99" height="9.31" transform="translate(140.09 159.16) rotate(-89.24)"/><rect class="cls-14" x="158.17" y="4.07" width="3.99" height="9.3" transform="translate(149.31 168.75) rotate(-89.24)"/><rect class="cls-15" x="167.64" y="4.19" width="3.99" height="9.3" transform="translate(158.54 178.35) rotate(-89.24)"/><rect class="cls-13" x="177.11" y="4.32" width="3.99" height="9.31" transform="translate(167.68 187.94) rotate(-89.22)"/><rect class="cls-14" x="152.96" y="8.22" width="3.99" height="9.31" transform="translate(140.02 167.65) rotate(-89.24)"/><rect class="cls-15" x="162.43" y="8.35" width="3.99" height="9.3" transform="translate(149.21 177.24) rotate(-89.23)"/><rect class="cls-16" x="171.9" y="8.48" width="3.99" height="9.31" transform="translate(158.45 186.83) rotate(-89.24)"/><rect class="cls-15" x="181.37" y="8.61" width="3.99" height="9.3" transform="translate(167.66 196.43) rotate(-89.24)"/><rect class="cls-17" x="148.58" y="12.42" width="3.99" height="9.31" transform="translate(131.49 167.4) rotate(-89.23)"/><rect class="cls-15" x="158.05" y="12.55" width="3.99" height="9.3" transform="translate(140.68 177) rotate(-89.22)"/><rect class="cls-18" x="167.52" y="12.67" width="3.99" height="9.3" transform="translate(149.92 186.59) rotate(-89.23)"/><rect class="cls-14" x="176.99" y="12.8" width="3.99" height="9.3" transform="translate(159.1 196.18) rotate(-89.22)"/><rect class="cls-19" x="152.85" y="16.66" width="3.99" height="9.31" transform="translate(131.49 175.86) rotate(-89.24)"/><rect class="cls-13" x="162.32" y="16.78" width="3.99" height="9.31" transform="translate(140.68 185.45) rotate(-89.23)"/><rect class="cls-15" x="171.79" y="16.91" width="3.99" height="9.31" transform="translate(149.9 195.04) rotate(-89.24)"/><rect class="cls-20" x="148.47" y="20.74" width="3.99" height="9.3" transform="translate(123.02 175.5) rotate(-89.22)"/><rect class="cls-17" x="157.94" y="20.87" width="3.99" height="9.3" transform="translate(132.25 185.09) rotate(-89.22)"/><rect class="cls-13" x="167.41" y="20.99" width="3.99" height="9.3" transform="translate(141.48 194.69) rotate(-89.23)"/><rect class="cls-15" x="176.88" y="21.12" width="3.99" height="9.3" transform="translate(150.74 204.29) rotate(-89.24)"/><rect class="cls-19" x="152.74" y="25.01" width="3.99" height="9.31" transform="translate(122.96 183.97) rotate(-89.22)"/><rect class="cls-21" x="162.21" y="25.13" width="3.99" height="9.3" transform="translate(132.23 193.57) rotate(-89.24)"/><rect class="cls-15" x="171.68" y="25.26" width="3.99" height="9.31" transform="translate(141.42 203.17) rotate(-89.23)"/><rect class="cls-13" x="148.36" y="29.09" width="3.99" height="9.3" transform="translate(114.59 183.62) rotate(-89.23)"/><rect class="cls-18" x="157.83" y="29.22" width="3.99" height="9.3" transform="translate(123.81 193.22) rotate(-89.23)"/><rect class="cls-19" x="167.3" y="29.34" width="3.99" height="9.31" transform="translate(133.02 202.81) rotate(-89.23)"/><rect class="cls-17" x="176.77" y="29.47" width="3.99" height="9.3" transform="translate(142.24 212.41) rotate(-89.23)"/><rect class="cls-14" x="152.62" y="33.36" width="3.99" height="9.31" transform="translate(114.54 192.11) rotate(-89.23)"/><rect class="cls-13" x="162.09" y="33.49" width="3.99" height="9.3" transform="translate(123.77 201.7) rotate(-89.24)"/><rect class="cls-17" x="171.56" y="33.61" width="3.99" height="9.31" transform="translate(132.96 211.29) rotate(-89.23)"/><rect class="cls-15" x="181.03" y="33.74" width="3.99" height="9.3" transform="translate(142.2 220.89) rotate(-89.24)"/><rect class="cls-13" x="148.21" y="37.47" width="3.99" height="9.3" transform="translate(106.06 191.75) rotate(-89.23)"/><rect class="cls-15" x="157.69" y="37.6" width="3.99" height="9.3" transform="translate(115.28 201.35) rotate(-89.23)"/><rect class="cls-18" x="167.15" y="37.73" width="3.99" height="9.3" transform="translate(124.53 210.95) rotate(-89.24)"/><rect class="cls-19" x="176.62" y="37.86" width="3.99" height="9.3" transform="translate(133.7 220.53) rotate(-89.23)"/><rect class="cls-15" x="186.1" y="37.98" width="3.99" height="9.3" transform="translate(142.92 230.13) rotate(-89.23)"/><rect class="cls-14" x="152.51" y="41.71" width="3.99" height="9.31" transform="translate(106.06 200.22) rotate(-89.22)"/><rect class="cls-15" x="161.98" y="41.84" width="3.99" height="9.31" transform="translate(115.32 209.83) rotate(-89.24)"/><rect class="cls-21" x="171.45" y="41.96" width="3.99" height="9.31" transform="translate(124.48 219.41) rotate(-89.22)"/><rect class="cls-15" x="180.92" y="42.09" width="3.99" height="9.3" transform="translate(133.74 229.02) rotate(-89.24)"/></g><path class="cls-22" d="M156.82,26.61h-2.11a3.4,3.4,0,0,0,.2-1,3.07,3.07,0,0,0-3-3.16h0a3.07,3.07,0,0,0-2.9,4.2,1.46,1.46,0,0,0-.47,1.09,1.42,1.42,0,0,0,.46,1.16,3,3,0,0,0-.36,1.34,3.08,3.08,0,0,0,3,3.16h0a3.09,3.09,0,0,0,3.11-3,3,3,0,0,0-.19-1.14h2.25Z"/><path class="cls-3" d="M151.67,31.44a1.25,1.25,0,0,1-1.21-1.29,1.43,1.43,0,0,1,.38-1,.19.19,0,0,0,0-.17,4.52,4.52,0,0,1-.19-1.2,4.19,4.19,0,0,1,.23-1.11.19.19,0,0,0,0-.15,1.4,1.4,0,0,1-.31-1,1.26,1.26,0,0,1,1.25-1.22,1.37,1.37,0,0,1,.79.26A.9.9,0,0,1,153,25a1.29,1.29,0,0,1,.11.39,3,3,0,0,1-.14,1.17,6,6,0,0,0-.21,1.25,6.89,6.89,0,0,0,.13,1.33,3.27,3.27,0,0,1,.07,1.26c-.13.48-.25.65-.52.81a1.33,1.33,0,0,1-.69.18Z"/><path class="cls-23" d="M151.71,31.69h0a1.5,1.5,0,0,1-1.46-1.55,1.69,1.69,0,0,1,.44-1.13,3.81,3.81,0,0,1-.21-1.22,4.43,4.43,0,0,1,.25-1.18,1.47,1.47,0,0,1-.34-1.08,1.51,1.51,0,0,1,1.5-1.46,1.62,1.62,0,0,1,.94.31,1.15,1.15,0,0,1,.42.57,1.51,1.51,0,0,1,.13.46,3.11,3.11,0,0,1-.15,1.26,5.73,5.73,0,0,0-.21,1.2,6.77,6.77,0,0,0,.13,1.28,3.4,3.4,0,0,1,.06,1.36,1.35,1.35,0,0,1-.63,1A1.59,1.59,0,0,1,151.71,31.69Zm.12-7.12a1,1,0,0,0-1,1c0,.32,0,.37.28.86a.44.44,0,0,1,0,.36,3.92,3.92,0,0,0-.22,1,4.35,4.35,0,0,0,.18,1.13.44.44,0,0,1-.08.39,1.19,1.19,0,0,0-.33.83,1,1,0,0,0,1,1l0,.25v-.25a1.09,1.09,0,0,0,.56-.14c.19-.12.28-.21.41-.67a3.15,3.15,0,0,0-.07-1.15,7,7,0,0,1-.14-1.38,6.3,6.3,0,0,1,.22-1.3,2.81,2.81,0,0,0,.14-1.06,1.12,1.12,0,0,0-.09-.34.68.68,0,0,0-.25-.35A1.13,1.13,0,0,0,151.83,24.57Z"/><path class="cls-23" d="M151.68,31.5h0a1.32,1.32,0,0,1-1.28-1.35,1.49,1.49,0,0,1,.4-1,.12.12,0,0,0,0-.11,4.55,4.55,0,0,1-.19-1.22,4.29,4.29,0,0,1,.24-1.13.13.13,0,0,0,0-.1,1.46,1.46,0,0,1-.32-1,1.33,1.33,0,0,1,1.3-1.27,1.63,1.63,0,0,1,.85.27,1,1,0,0,1,.36.5,1.42,1.42,0,0,1,.11.42,3,3,0,0,1-.15,1.17,5.88,5.88,0,0,0-.21,1.23,6.81,6.81,0,0,0,.13,1.32,3.29,3.29,0,0,1,.07,1.28,1.18,1.18,0,0,1-.55.85A1.43,1.43,0,0,1,151.68,31.5Zm.14-6.74a.82.82,0,0,0-.79.79c0,.29,0,.32.25.76a.62.62,0,0,1,.06.51,3.89,3.89,0,0,0-.21,1,4.16,4.16,0,0,0,.17,1.08.63.63,0,0,1-.11.55,1,1,0,0,0-.29.73.82.82,0,0,0,.79.84h0a1,1,0,0,0,.5-.12c.14-.09.21-.14.31-.5a3,3,0,0,0-.06-1.12,7.29,7.29,0,0,1-.14-1.42,6.3,6.3,0,0,1,.22-1.34,2.83,2.83,0,0,0,.14-1,1,1,0,0,0-.08-.3.53.53,0,0,0-.19-.29A1.13,1.13,0,0,0,151.81,24.76Z"/><path class="cls-24" d="M153.26,25.41a1.46,1.46,0,0,0-.12-.44,1.08,1.08,0,0,0-.4-.54,1.53,1.53,0,0,0-.86-.3h0a1.44,1.44,0,0,0-1.44,1.4,1.58,1.58,0,0,0,.34,1.1,4.38,4.38,0,0,0-.24,1.16,4.67,4.67,0,0,0,.2,1.26,1.61,1.61,0,0,0-.42,1.09,1.44,1.44,0,0,0,1.4,1.48h.05a1.52,1.52,0,0,0,.79-.21,1.25,1.25,0,0,0,.59-.87v-.06c.18-.67-.22-1.64-.2-2.63S153.4,26.06,153.26,25.41Zm-.59,3.81a3.19,3.19,0,0,1,.07,1.18v.06c-.11.4-.21.52-.42.65a1.19,1.19,0,0,1-.63.15h0a1.07,1.07,0,0,1-1-1.1,1.24,1.24,0,0,1,.34-.87.38.38,0,0,0,.07-.33,4.37,4.37,0,0,1-.18-1.15,4,4,0,0,1,.23-1.06.38.38,0,0,0,0-.31c-.29-.49-.29-.56-.29-.89a1.07,1.07,0,0,1,1.05-1,1.37,1.37,0,0,1,.7.23.75.75,0,0,1,.28.39,1.19,1.19,0,0,1,.1.36,2.88,2.88,0,0,1-.14,1.08,6.1,6.1,0,0,0-.22,1.29A7,7,0,0,0,152.68,29.22Z"/><path class="cls-23" d="M151.71,31.67h-.05a1.49,1.49,0,0,1-1.44-1.53,1.64,1.64,0,0,1,.42-1.1,4.6,4.6,0,0,1-.19-1.25,4.32,4.32,0,0,1,.24-1.16,1.6,1.6,0,0,1-.33-1.1,1.5,1.5,0,0,1,1.53-1.45,1.57,1.57,0,0,1,.89.3,1.14,1.14,0,0,1,.42.56,1.51,1.51,0,0,1,.13.45,3.1,3.1,0,0,1-.15,1.26,5.78,5.78,0,0,0-.21,1.2,6.66,6.66,0,0,0,.13,1.29,3.39,3.39,0,0,1,.06,1.36.33.33,0,0,1,0,.06,1.3,1.3,0,0,1-.61.9A1.57,1.57,0,0,1,151.71,31.67Zm.13-7.49a1.4,1.4,0,0,0-1.39,1.35,1.54,1.54,0,0,0,.33,1.07v0a4.35,4.35,0,0,0-.24,1.15,4.62,4.62,0,0,0,.19,1.24v0l0,0a1.57,1.57,0,0,0-.41,1.06,1.39,1.39,0,0,0,1.35,1.43,1.5,1.5,0,0,0,.81-.2,1.21,1.21,0,0,0,.57-.84v-.05a3.32,3.32,0,0,0-.06-1.32,6.67,6.67,0,0,1-.13-1.31,5.8,5.8,0,0,1,.21-1.22,3,3,0,0,0,.15-1.22,1.44,1.44,0,0,0-.12-.43,1,1,0,0,0-.38-.52,1.48,1.48,0,0,0-.83-.29Zm-.16,7.12a1.12,1.12,0,0,1-1.09-1.15,1.28,1.28,0,0,1,.35-.9A.33.33,0,0,0,151,29a4.43,4.43,0,0,1-.18-1.16,4.1,4.1,0,0,1,.23-1.07.32.32,0,0,0,0-.27,1.28,1.28,0,0,1-.29-.92,1.12,1.12,0,0,1,1.1-1.08h0a1.42,1.42,0,0,1,.73.23.81.81,0,0,1,.29.41,1.25,1.25,0,0,1,.1.37,2.9,2.9,0,0,1-.14,1.1,6,6,0,0,0-.22,1.28,6.9,6.9,0,0,0,.14,1.36,3.19,3.19,0,0,1,.07,1.2v0c-.12.43-.23.55-.45.68A1.24,1.24,0,0,1,151.68,31.3Zm.15-6.74a1,1,0,0,0-1,1c0,.32,0,.38.28.87a.43.43,0,0,1,0,.35,4,4,0,0,0-.22,1,4.34,4.34,0,0,0,.18,1.13.43.43,0,0,1-.08.37,1.21,1.21,0,0,0-.33.84,1,1,0,0,0,1,1,1.14,1.14,0,0,0,.61-.14c.21-.12.29-.23.4-.62v0a3.15,3.15,0,0,0-.07-1.16,7,7,0,0,1-.14-1.38,6.15,6.15,0,0,1,.22-1.3,2.84,2.84,0,0,0,.14-1.06,1.15,1.15,0,0,0-.09-.35.7.7,0,0,0-.26-.37A1.31,1.31,0,0,0,151.82,24.56Z"/><path class="cls-3" d="M14,29.21s4.95-1.75,7,1.46c.85,1.31,1.89,6.38-6.45,6.08Z"/><path class="cls-3" d="M15,29.09s3.77-1.26,5.3,1.19c.63,1,1.35,4.86-5,4.53Z"/><path class="cls-4" d="M27.28,28.42c-.89-1.86-3.33-5-9.59-5a21.6,21.6,0,0,0-2.67.18l-.2-2.45,9.09-.86a1.65,1.65,0,0,0,1.48-1.81l-.27-2.58a1.64,1.64,0,0,0-1.64-1.47h-.2L8.39,16.22A1.7,1.7,0,0,0,6.9,18L8.54,38.85a1.91,1.91,0,0,0,1.56,1.7,37.42,37.42,0,0,0,5.51.41c5.23,0,8.8-1.14,10.61-3.4A8.77,8.77,0,0,0,28,33.22,8.56,8.56,0,0,0,27.28,28.42Z"/><path class="cls-25" d="M8.49,17.1a.81.81,0,0,0-.71.86L9.42,38.78a1,1,0,0,0,.82.9S21.85,41.59,25.53,37s1.89-14.53-11.32-12.38l-.28-3.48a.79.79,0,0,1,.71-.84l9.18-.87a.77.77,0,0,0,.69-.84L24.24,16a.76.76,0,0,0-.85-.68Z"/><path class="cls-4" d="M17.33,27.58h0a10.82,10.82,0,0,0-2.84.39l-.68.2.05.7.49,6.64.06.78.78,0,.88,0c3.14,0,5.19-.84,6.11-2.48a4.24,4.24,0,0,0-.11-4.06,5.23,5.23,0,0,0-4.73-2.24"/><path class="cls-3" d="M14.75,28.82s4.75-1.44,6.57,1.47c.7,1.12,1.61,5.52-6.08,5.17Z"/><path class="cls-10" d="M113.49,12.32c.17.23.15.07.46.07a.93.93,0,1,0-.89-.67c-.66.39-1.91,1.48-2.14,4.11l-.91-.12h-.18a1.85,1.85,0,0,0-1.36.62L98.23,29.06l.09-12.29a1.07,1.07,0,0,0-1.07-1.08h0l-4.92.2A1.12,1.12,0,0,0,91.21,17l.2,18.42a2.86,2.86,0,0,1-.29,1.21v.06l-.6,1.71a.81.81,0,0,0,0,.79.82.82,0,0,0,.73.37h8a.75.75,0,0,0,.68-1.19L99.69,38a.72.72,0,0,1,.08-.76l6.83-7.5.11,6.82a2.7,2.7,0,0,1-.32,1.18l-.41.67a.75.75,0,0,0-.06.79.78.78,0,0,0,.73.37h7.5a.8.8,0,0,0,.74-.34.76.76,0,0,0,0-.75l-.58-1.77v0a3.11,3.11,0,0,1-.25-1.23l.26-18.1a1.19,1.19,0,0,0-1-1.21L112,16A5.76,5.76,0,0,1,113.49,12.32Z"/><circle class="cls-26" cx="28.01" cy="38.56" r="1.09"/><circle class="cls-3" cx="28.15" cy="38.18" r="0.27"/><circle class="cls-26" cx="5.99" cy="26.24" r="0.73"/><circle class="cls-3" cx="6.08" cy="25.97" r="0.18"/><circle class="cls-26" cx="10.67" cy="14.45" r="0.74"/><circle class="cls-3" cx="10.79" cy="14.21" r="0.19"/><circle class="cls-26" cx="17.98" cy="33.08" r="1.26"/><circle class="cls-3" cx="18.14" cy="32.61" r="0.32"/><circle class="cls-26" cx="26.63" cy="23.81" r="0.95"/><circle class="cls-3" cx="26.86" cy="23.44" r="0.24"/><circle class="cls-26" cx="26.68" cy="18.33" r="0.63"/><circle class="cls-3" cx="26.86" cy="18.13" r="0.16"/><g class="cls-27"><circle class="cls-26" cx="20.73" cy="22.3" r="0.84"/><circle class="cls-3" cx="20.9" cy="21.95" r="0.21"/></g><path class="cls-4" d="M239.17,19.32a4,4,0,0,0-2.49-.93h0c.52-1.29.8-2.06.81-2.09a1.3,1.3,0,0,0,0-1.2,1.3,1.3,0,0,0-1.08-.54h-5.57a1.87,1.87,0,0,0-1.6,1l-3.68,7.34-4.36-7.46a1.88,1.88,0,0,0-1.59-.86h-6.19a1.26,1.26,0,0,0-1.09.66,1.23,1.23,0,0,0,.07,1.25l1.34,2.13a2.49,2.49,0,0,0-1.89,1.1,3.56,3.56,0,0,0,.38,4.64l.1.12a13.24,13.24,0,0,0,3.34,2.06l.46.24a3.28,3.28,0,0,1,.32.24,2.53,2.53,0,0,0,1.55.73,1.53,1.53,0,0,0,1-.42l.1-.11,1.39,2.21a3.89,3.89,0,0,1,.33.73c.18.61.51,2.42-.12,3.39a1.55,1.55,0,0,1-1.18.68,5.54,5.54,0,0,1-.8.06,5.94,5.94,0,0,1-3.72-1.38,1.31,1.31,0,0,0-.9-.37,1.26,1.26,0,0,0-1.18.87L211.75,37a1.56,1.56,0,0,0,.73,1.88,17.8,17.8,0,0,0,7.39,1.85,8.89,8.89,0,0,0,7.91-4.22,102.49,102.49,0,0,0,5-9,1.79,1.79,0,0,0,.85.23h.07a3.07,3.07,0,0,0,2-1,4,4,0,0,1,.37-.31l.19-.11c.2-.11.27-.15,2.22-1.54a4.21,4.21,0,0,0,1.71-3.05A2.87,2.87,0,0,0,239.17,19.32Z"/><path class="cls-4" d="M219.87,41a18.13,18.13,0,0,1-7.51-1.88,1.82,1.82,0,0,1-.85-2.19l1.28-3.58a1.5,1.5,0,0,1,1.41-1,1.55,1.55,0,0,1,1.07.44A5.72,5.72,0,0,0,218.82,34a5.31,5.31,0,0,0,.77-.06,1.3,1.3,0,0,0,1-.57c.57-.89.25-2.64.09-3.19a3.65,3.65,0,0,0-.31-.67l-1.23-2A1.76,1.76,0,0,1,218,28a2.76,2.76,0,0,1-1.71-.78,3.05,3.05,0,0,0-.29-.22l-.45-.24a13,13,0,0,1-3.41-2.12l-.1-.12a3.83,3.83,0,0,1-.41-4.93,2.61,2.61,0,0,1,1.7-1.15l-1.14-1.82a1.48,1.48,0,0,1-.08-1.51,1.51,1.51,0,0,1,1.31-.79h6.19a2.14,2.14,0,0,1,1.81,1l4.13,7.06,3.48-6.93a2.11,2.11,0,0,1,1.82-1.11h5.57a1.55,1.55,0,0,1,1.29.65,1.55,1.55,0,0,1,0,1.43c0,.06-.27.73-.68,1.77a4.23,4.23,0,0,1,2.29,1,3.11,3.11,0,0,1,1.13,2.58A4.48,4.48,0,0,1,238.64,25c-2,1.4-2,1.44-2.25,1.56l-.18.11a3.58,3.58,0,0,0-.33.28,3.33,3.33,0,0,1-2.2,1.09h-.07a2.16,2.16,0,0,1-.73-.14c-1.6,3.2-3.24,6.16-4.89,8.78A9.13,9.13,0,0,1,219.87,41Zm-5.67-8.17a1,1,0,0,0-.94.7L212,37.06a1.31,1.31,0,0,0,.61,1.58,17.56,17.56,0,0,0,7.28,1.82,8.65,8.65,0,0,0,7.7-4.11,101.91,101.91,0,0,0,5-9l.12-.24.23.13a1.55,1.55,0,0,0,.73.19h0a2.84,2.84,0,0,0,1.92-1,4.36,4.36,0,0,1,.4-.34l.19-.12c.19-.11.27-.15,2.21-1.53A4,4,0,0,0,240,21.69a2.62,2.62,0,0,0-1-2.17,3.73,3.73,0,0,0-2.33-.87h-.37l.13-.34c.53-1.32.81-2.07.81-2.08.16-.45.23-.75.08-1a1.05,1.05,0,0,0-.88-.44h-5.57a1.61,1.61,0,0,0-1.38.84l-3.89,7.75L221,15.55a1.62,1.62,0,0,0-1.38-.73h-6.19a1,1,0,0,0-.87.53,1,1,0,0,0,.07,1l1.55,2.47-.39,0a2.24,2.24,0,0,0-1.71,1,3.3,3.3,0,0,0,.36,4.34l.11.13a13.62,13.62,0,0,0,3.26,2l.47.24a3.38,3.38,0,0,1,.35.26,2.32,2.32,0,0,0,1.41.68,1.29,1.29,0,0,0,.87-.35l.07-.07.22-.24.2.26,1.39,2.21a4.13,4.13,0,0,1,.36.8s.67,2.33-.14,3.6a1.81,1.81,0,0,1-1.35.8,5.82,5.82,0,0,1-.84.06,6.19,6.19,0,0,1-3.89-1.45A1.06,1.06,0,0,0,214.2,32.79Z"/><path class="cls-28" d="M215.62,19.8l-.16,0c-1.17-.4-2.36-.23-2.79.48a2.73,2.73,0,0,0,.42,3.7A22.38,22.38,0,0,0,216.62,26c.54.3,1.23,1.23,1.84.67a4.25,4.25,0,0,0,.81-1.09l0,0a4,4,0,0,0,.27.48l1.75,2.78a4.72,4.72,0,0,1,.44,1s1.41,4.75-2,5.25a6.74,6.74,0,0,1-5.29-1.57.32.32,0,0,0-.57.13l-1.28,3.58a.63.63,0,0,0,.29.75s9.62,5.05,14.09-2c2.09-3.33,5.23-9.52,5.23-9.52l.24-.48,0,.06c.27.38.61.88,1.18.9.81,0,1.42-.85,1.94-1.18A23.15,23.15,0,0,0,238,24.06c1.07-.76,2-2.74.61-4a2.43,2.43,0,0,0-3.6.21l.21-.54,1.57-3.86a.36.36,0,0,0-.35-.52h-5.57a1,1,0,0,0-.77.48l-4.21,8.38c-.13.26-.36.27-.51,0l-4.88-8.38a1,1,0,0,0-.8-.46h-6.24c-.29,0-.41.22-.25.47l2.17,3.45Z"/><path class="cls-3" d="M222.88,25.09s-1.36.74-.63,1.58c1,1.14,2.69-.54,1.77-2.5-.77-1.64-3.29-2.36-4.64-1C219.38,23.16,222.85,22.71,222.88,25.09Z"/><path class="cls-3" d="M214.77,18.43s1.77.5,2.58-.45a1.48,1.48,0,0,0,.18-2.12A1.94,1.94,0,0,1,218,18.8s2.27-.14,2.27,1.65-3,1.7-2.61.54c.27-.86,1.42.54,1.58-.56s-1.92-1-3.65-.67Z"/><path class="cls-3" d="M226.4,36.66l-.3.36a10.3,10.3,0,0,0-2.37-1.65.75.75,0,0,0-.78.1,1.46,1.46,0,0,0-.46.71s-.51-.82.68-1.3c0,0-1.15-.77-.41-1.75s2.17.06,1.44.58a.28.28,0,0,1-.46-.14.25.25,0,0,0-.39-.11c-.7.64,2.36,2.36,3.34,2.83Z"/><path class="cls-3" d="M223.41,37.67a.68.68,0,1,1-.61-.74A.68.68,0,0,1,223.41,37.67Z"/><path class="cls-3" d="M215,36.69a.88.88,0,1,1-.79-1A.88.88,0,0,1,215,36.69Z"/><path class="cls-3" d="M229.78,28.87a.66.66,0,0,1-.72.58.65.65,0,0,1,.13-1.29A.66.66,0,0,1,229.78,28.87Z"/><path class="cls-3" d="M227.32,33.11a.7.7,0,0,1-.77.62.69.69,0,0,1-.62-.76.7.7,0,0,1,.76-.63A.71.71,0,0,1,227.32,33.11Z"/><path class="cls-3" d="M220.93,24.75a.54.54,0,0,1-.59.48.53.53,0,0,1-.48-.58.54.54,0,0,1,.58-.48A.54.54,0,0,1,220.93,24.75Z"/><path class="cls-3" d="M222.21,20.85a.47.47,0,0,1-.51.41.46.46,0,0,1-.42-.5.47.47,0,0,1,.51-.42A.47.47,0,0,1,222.21,20.85Z"/><path class="cls-3" d="M229.62,20.73a.47.47,0,0,1-.51.41.46.46,0,0,1-.42-.5.47.47,0,0,1,.51-.42A.47.47,0,0,1,229.62,20.73Z"/><path class="cls-3" d="M232,23.91a.6.6,0,0,1-.65.53.59.59,0,0,1,.12-1.17A.6.6,0,0,1,232,23.91Z"/><circle class="cls-3" cx="219.96" cy="17.84" r="0.54" transform="translate(181.07 235.07) rotate(-84.49)"/><path class="cls-3" d="M218.28,39.6c-.18,0-.72-.11-.72-.11s1.44-2.77.59-2.9-.58,1.13-.58,1.13-.77-.88-.18-1.51c.93-1,2,0,1.74.57,0,0,.93-1.13,1.81-.26.59.59-.16,1.29-.16,1.29a.69.69,0,0,0-.38-.9c-.4-.15-.95.21-1.16,1.15a13.46,13.46,0,0,0-.25,1.61Z"/><path class="cls-3" d="M226.85,22.26s1.64.89,2.54,0c1.63-1.55,2.5-1.3,3.16-.73a2.08,2.08,0,0,0-2.23.58c-.44.39-1,1.35-2.05,1.24s1.34.16,1.15,1.76-1.85,2-2.46,1,.27-1.16.55-.63.74.42,1-.08c.49-.88-.28-1.44-.92-1.74a3,3,0,0,0-1.36-.27S226.66,22.6,226.85,22.26Z"/><path class="cls-3" d="M215.13,23.16c-.26-.34-.31-.85.08-1,0,0,.2.19.55,0a.61.61,0,0,0,.08-1c-.7-.82-2.4.3-1.66,2,.58,1.33,2.3,1.51,3.66.95C217.85,24.05,215.88,24.14,215.13,23.16Z"/><path class="cls-3" d="M236.3,23.16c.26-.34.31-.85-.08-1,0,0-.2.19-.55,0a.61.61,0,0,1-.08-1c.7-.82,2.4.3,1.66,2-.58,1.33-2.3,1.51-3.66.95C233.58,24.05,235.55,24.14,236.3,23.16Z"/><path class="cls-3" d="M232.44,18.2s-.71.37-1-.55a1.34,1.34,0,0,1,2.21-1.05c1.49,1.1.59,3.12-.79,3.59A2.27,2.27,0,0,1,230,17.76s.7,1.63,1.9,1.71a1.41,1.41,0,0,0,1.56-1.66.85.85,0,0,0-1.31-.55C231.88,17.54,231.94,18,232.44,18.2Z"/><path class="cls-3" d="M224.7,29.85s.75-.21.84.71a1.3,1.3,0,0,1-2.29.57c-1.19-1.33.05-3.07,1.44-3.24a2.3,2.3,0,0,1,2.21,2.85s-.35-1.68-1.46-2a1.37,1.37,0,0,0-1.8,1.27.82.82,0,0,0,1.13.77C225.11,30.59,225.13,30.17,224.7,29.85Z"/><path class="cls-3" d="M215.38,17a.54.54,0,0,1-.59.48.53.53,0,0,1-.48-.58.54.54,0,0,1,1.07.1Z"/><path class="cls-2" d="M7.31,10.31c.13.08.75.33,3.43.33h0c1.35,0,3.05-.06,5.06-.19C23,10,24,9.26,24.12,9.1v0a.24.24,0,0,1,0-.09.25.25,0,0,1,0-.09c-.09-.24-1.75-.77-8.34-.35C12.18,8.78,8,9.15,7.37,10a.31.31,0,0,0-.06.27Z"/><path class="cls-2" d="M29.17,17.94a8.92,8.92,0,0,0-3.68-5.11c-.35-.23-.68-.43-1-.62A6.23,6.23,0,0,1,23,11.12a31.92,31.92,0,0,1-7.24.93l-2.86.14c-1.22.06-2.1.11-2.77.11a5.87,5.87,0,0,1-1.46-.14A7.37,7.37,0,0,1,7,14l-.4.37A8.92,8.92,0,0,0,3.78,20L5.41,40.2A3.79,3.79,0,0,0,7.58,43h0c2.11,1.16,6.42,1.67,11,1.31,5.29-.43,9.93-1.95,11.28-3.7a3.65,3.65,0,0,0,1-2.43Z"/><path class="cls-11" d="M31.31,38.11,29.68,17.9a9.34,9.34,0,0,0-3.91-5.49c-.36-.24-.71-.45-1-.63a7.8,7.8,0,0,1-1.25-.85l.11-.06a1.67,1.67,0,0,0,1-1.73.39.39,0,0,0-.05-.23.26.26,0,0,0,0-.06c0-.33-.16-1.36-8.89-.8C10,8.4,7.59,8.87,7,9.72a.82.82,0,0,0-.16.63.36.36,0,0,0,.07.23A2.39,2.39,0,0,0,8,11.9l.21.09A8,8,0,0,1,6.66,13.6L6.25,14a9.35,9.35,0,0,0-3,6L4.9,40.24a4.3,4.3,0,0,0,2.47,3.19c1.75,1,4.78,1.48,8.27,1.48,1,0,2,0,3-.12,5.51-.44,10.19-2,11.64-3.89A4.17,4.17,0,0,0,31.31,38.11ZM7.63,10.94a16,16,0,0,0,3.11.21h0c1.36,0,3.08-.06,5.1-.19,5.29-.33,7.38-.82,8.22-1.21a1.5,1.5,0,0,1-.69.66c-1,.55-3.71.95-7.63,1.12l-2.87.14c-1.21.06-2.09.11-2.74.11a4,4,0,0,1-1.94-.35A1.54,1.54,0,0,1,7.63,10.94ZM7.37,10c.65-.88,4.81-1.25,8.37-1.48,6.59-.42,8.26.11,8.34.35a.25.25,0,0,0,0,.09.24.24,0,0,0,0,.09v0c-.13.16-1.1.9-8.32,1.35-2,.13-3.71.19-5.06.19h0c-2.67,0-3.29-.25-3.43-.33v0A.31.31,0,0,1,7.37,10ZM29.85,40.58c-1.35,1.75-6,3.27-11.28,3.7-4.55.37-8.85-.15-11-1.31h0A3.79,3.79,0,0,1,5.41,40.2L3.78,20A8.92,8.92,0,0,1,6.6,14.35L7,14a7.37,7.37,0,0,0,1.66-1.82,5.87,5.87,0,0,0,1.46.14c.67,0,1.55,0,2.77-.11L15.76,12A31.92,31.92,0,0,0,23,11.12a6.23,6.23,0,0,0,1.49,1.09c.32.19.65.39,1,.62a8.92,8.92,0,0,1,3.68,5.11L30.8,38.15A3.65,3.65,0,0,1,29.85,40.58Z"/><path class="cls-3" d="M10.13,11.79c.65,0,1.53,0,2.74-.11l2.87-.14c3.92-.18,6.63-.57,7.63-1.12a1.5,1.5,0,0,0,.69-.66c-.84.39-2.93.88-8.22,1.21-2,.13-3.73.19-5.1.19h0a16,16,0,0,1-3.11-.21,1.54,1.54,0,0,0,.56.49A4,4,0,0,0,10.13,11.79Z"/><g class="cls-29"><path class="cls-30" d="M4.53,29.24"/><path class="cls-30" d="M29.82,26.36"/></g><circle class="cls-3" cx="95.86" cy="33.86" r="2.68"/><circle class="cls-23" cx="95.98" cy="34.17" r="1.01"/><path class="cls-23" d="M93.17,34.49a3.15,3.15,0,0,1,2.36-2.79c1.94-.43,3.06,1.74,3.06,1.74s-.18-2.5-2.43-2.59A2.82,2.82,0,0,0,93.17,34.49Z"/><circle class="cls-3" cx="94.62" cy="21.04" r="2.16" transform="translate(53.76 108.93) rotate(-77.61)"/><circle class="cls-23" cx="94.82" cy="21.42" r="0.88" transform="translate(53.52 109.42) rotate(-77.59)"/><path class="cls-23" d="M92.46,20.53a2.46,2.46,0,0,1,2.47-1.45c1.58.17,1.91,2.06,1.91,2.06s.31-2-1.27-2.51A2.23,2.23,0,0,0,92.46,20.53Z"/><circle class="cls-3" cx="249.57" cy="17.11" r="1.92" transform="translate(199.36 262.17) rotate(-82.34)"/><circle class="cls-23" cx="249.57" cy="17.18" r="0.92" transform="translate(199.26 262.22) rotate(-82.34)"/><path class="cls-23" d="M247.62,16.82a2.18,2.18,0,0,1,2.08-1.46c1.41,0,1.84,1.69,1.84,1.69s.13-1.79-1.3-2.13A2,2,0,0,0,247.62,16.82Z"/><circle class="cls-3" cx="255.16" cy="17.11" r="1.92" transform="translate(204.22 267.72) rotate(-82.35)"/><circle class="cls-23" cx="255.16" cy="17.18" r="0.92" transform="translate(204.11 267.77) rotate(-82.34)"/><path class="cls-23" d="M253.21,16.82a2.18,2.18,0,0,1,2.08-1.46c1.41,0,1.84,1.69,1.84,1.69s.13-1.79-1.3-2.13A2,2,0,0,0,253.21,16.82Z"/><circle class="cls-3" cx="110.21" cy="34.11" r="2.32" transform="translate(51.41 133.37) rotate(-76.56)"/><circle class="cls-23" cx="110.06" cy="34.32" r="0.94" transform="translate(51.16 133.42) rotate(-76.6)"/><path class="cls-23" d="M107.88,33.47a2.83,2.83,0,0,1,2.86-1.34c1.68.3,1.85,2.42,1.85,2.42s.58-2.1-1.24-2.88A2.36,2.36,0,0,0,107.88,33.47Z"/><circle class="cls-3" cx="108.87" cy="23.22" r="2.66" transform="translate(55.63 120.99) rotate(-73.47)"/><circle class="cls-23" cx="108.58" cy="23.74" r="1.03" transform="translate(54.9 121.06) rotate(-73.45)"/><path class="cls-23" d="M106.23,22.51a3,3,0,0,1,3.19-1.5c2,.37,2.12,2.87,2.12,2.87s.7-2.62-1.23-3.44A2.79,2.79,0,0,0,106.23,22.51Z"/><path class="cls-31" d="M41.67,45.15c-.13.32-.91.32-1.75,0h0c-.84-.33-1.41-.87-1.28-1.19l3.2-7.51c.13-.33.91-.32,1.75,0h0c.84.33,1.41.87,1.28,1.19Z"/><path class="cls-7" d="M35.77,30.72A7.45,7.45,0,0,0,35,32c-.2.39-.46,1-.63,1.45s-.51,1.13.06,1.7c7.15,7.15,13.62,5,17.12,2.33,4.17-3.16,5.61-9.57,4.64-13.88-1.88-8.36-8.76-8.69-12.09-8.21-2.79.4-3.23.78-3.53,1.76l-.5,1.79c-.06.17-.21.79.25.76a3.79,3.79,0,0,1,1.4.1,2.79,2.79,0,0,1,1.69,1.26c.12.16.2.33.38.3.53-.09,2.84,0,3.57,1.89a2.47,2.47,0,0,1-.15,2.24c-.56.79-1.51.75-2.83.39a15.28,15.28,0,0,0-2.07-.6c-.34,0-.63.43-1.19,1.79-.48,1.18-.45,1.49-.2,1.64.73.42,2.55,1.11,3.33,1.44,1.76.74,2.53,1.86.86,3.23a4.6,4.6,0,0,1-6.08-.84,4.53,4.53,0,0,1-1.87-.69C36.35,31.35,36.4,30.1,35.77,30.72Z"/><path class="cls-32" d="M53.77,26.19c-1-5-2.54-7.24-6.6-8.52-.24-.07-.26-.3,0-.27,0,0,6.23.6,6.85,8.83C54,26.49,53.83,26.5,53.77,26.19Z"/><path class="cls-32" d="M53.93,26.89a.66.66,0,0,1-.61-.61c-1-5-2.51-7-6.28-8.16a.66.66,0,0,1-.51-.71.58.58,0,0,1,.6-.47c.15,0,6.71.74,7.35,9.27a.65.65,0,0,1-.16.52l-.14.15Z"/><path class="cls-11" d="M13.59,31.64c-4,0-7.11-.74-9-2.12,0,0,0-.11,0-.23a.12.12,0,0,1,.19-.08l.05,0c2.37,1.7,6.88,2.38,12.37,1.86,9.17-.87,12.33-4.71,12.36-4.75s.29-.14.33-.06a.71.71,0,0,1,0,.15c0,.08,0,.08,0,.11s-3.32,4-12.66,4.89c-1.26.12-2.46.18-3.59.18Z"/><path class="cls-4" d="M207.89,38.75,202,16a2,2,0,0,0-1.84-1.42h-.83c.08-.23.15-.43.22-.61A9.72,9.72,0,0,1,200.66,12a4.6,4.6,0,0,0,1.13-2.58,4.67,4.67,0,1,0-9.35,0v.07s0,0,0,0a6,6,0,0,0,1.31,3c.21.32.44.66.66,1a10,10,0,0,1,.46,1H194a2.08,2.08,0,0,0-1.87,1.33l-8,22.86a1.43,1.43,0,0,0,1.38,2h0l5.3,0a2,2,0,0,0,1.86-1.36l3.92-12.21,2.3,12a1.86,1.86,0,0,0,1.81,1.49l5.71,0a1.49,1.49,0,0,0,1.46-1.9Z"/><path class="cls-4" d="M185.52,41h0a1.68,1.68,0,0,1-1.62-2.28l8-22.86a2.34,2.34,0,0,1,2.11-1.5h.47c-.12-.27-.23-.49-.29-.59-.21-.35-.43-.68-.64-1a6.25,6.25,0,0,1-1.36-3.16V9.44a4.92,4.92,0,0,1,9.85,0,4.79,4.79,0,0,1-1.17,2.72A9.52,9.52,0,0,0,199.76,14l-.1.27h.47a2.21,2.21,0,0,1,2.09,1.61l5.92,22.78a1.74,1.74,0,0,1-1.71,2.21l-5.71,0a2.12,2.12,0,0,1-2.06-1.7l-2.11-11.08-3.62,11.27a2.3,2.3,0,0,1-2.1,1.54ZM197.11,5a4.42,4.42,0,0,0-4.42,4.43v.07A5.84,5.84,0,0,0,194,12.44c.22.34.44.67.66,1a10.29,10.29,0,0,1,.48,1l.15.35H194A1.82,1.82,0,0,0,192.38,16l-8,22.86a1.18,1.18,0,0,0,1.15,1.62v0l5.3,0a1.78,1.78,0,0,0,1.63-1.19l3.92-12.21.48,0,2.3,12a1.61,1.61,0,0,0,1.57,1.29l5.71,0a1.24,1.24,0,0,0,1.22-1.59L201.73,16a1.69,1.69,0,0,0-1.6-1.23H199l.11-.33c.08-.23.15-.44.23-.63a9.85,9.85,0,0,1,1.16-2,4.44,4.44,0,0,0,1.09-2.44A4.43,4.43,0,0,0,197.11,5Z"/><path class="cls-3" d="M185.46,39.81a.49.49,0,0,1-.5-.7l8-22.86a1.19,1.19,0,0,1,1-.76h6.16a1,1,0,0,1,.93.71L206.92,39a.55.55,0,0,1-.56.72l-5.71,0a.93.93,0,0,1-.88-.73l-2.39-12.55a.86.86,0,0,0-.75-.73,1,1,0,0,0-.84.71l-4.05,12.61a1.09,1.09,0,0,1-1,.71Z"/><g class="cls-33"><path class="cls-34" d="M193.45,18.86s-2.22-1.69-2.71-.1.82,3.28,3.77,3.42c0,0,2.44-1.92,2-3.73C196,16.44,194,16.79,193.45,18.86Z"/><path class="cls-34" d="M200.9,21.88s-.64-2.67-2.45-1.48c-1.21.8,0,4.9,0,4.9s4.94-1.13,4.62-2.73S201.75,21.26,200.9,21.88Z"/><path class="cls-34" d="M202.91,37s-.92-2.09-2.33-.93c-.87.72,1.22,4.14,1.22,4.14s4-1.12,3.47-2.89C204.94,36.11,203.51,36.33,202.91,37Z"/><path class="cls-34" d="M190.91,29s.15-2.39-2-2.14-1.22,3.31,1.54,6c0,0,4.12-2.39,3.54-4.63C193.51,26.19,190.92,27.37,190.91,29Z"/><path class="cls-34" d="M202.21,30s-2.3-2.22-2.85.67c-.33,1.73,4.16,3.19,4.16,3.19s2.64-3.31,1.39-4.81A1.47,1.47,0,0,0,202.21,30Z"/><path class="cls-34" d="M190.13,37.6s-2.36-2.28-3,.11c-.51,2,4.25,3,4.25,3s2.46-3,1.12-4.79C191.72,34.86,189.86,35.77,190.13,37.6Z"/></g><path class="cls-3" d="M198.18,14.91c.17-.52.31-1,.47-1.35.77-1.88,2.19-2.94,2.19-4.15a3.73,3.73,0,1,0-7.46,0s0,0,0,.07c.06,1.19,1,2.15,1.83,3.6a14.8,14.8,0,0,1,.82,1.82Z"/><path class="cls-23" d="M197,15.33a.37.37,0,0,1-.33-.19c-.73-1.33.23-2.53.75-3.18l.14-.18c-1.89-.3-2.39-1.07-2.52-1.52a1.42,1.42,0,0,1,.55-1.5,3.14,3.14,0,0,1,2.89-.42.37.37,0,1,1-.21.71,2.42,2.42,0,0,0-2.21.28.74.74,0,0,0-.31.72c.05.18.37.8,2.18,1a.55.55,0,0,1,.49.33c.13.32-.1.61-.42,1-.62.77-1.13,1.53-.68,2.36a.37.37,0,0,1-.15.5A.38.38,0,0,1,197,15.33Z"/><path class="cls-10" d="M117.49,15.64a.23.23,0,0,1-.19-.4A5,5,0,1,0,109,10.77a.23.23,0,0,1-.46-.07,5.48,5.48,0,1,1,9,4.88.22.22,0,0,1-.12.06Z"/><path class="cls-10" d="M117.45,15.89a.48.48,0,0,1-.32-.84A4.76,4.76,0,0,0,114,6.71a4.81,4.81,0,0,0-.76.06,4.74,4.74,0,0,0-4,4,.48.48,0,0,1-.48.41h-.07a.48.48,0,0,1-.41-.54,5.73,5.73,0,1,1,9.45,5.11.46.46,0,0,1-.24.11Z"/><path class="cls-10" d="M119.06,17.23a.33.33,0,0,1-.3-.11.33.33,0,0,1,0-.47A7.14,7.14,0,1,0,107,10.3a.33.33,0,0,1-.65-.09,7.8,7.8,0,1,1,12.87,7,.31.31,0,0,1-.16.08Z"/><path class="cls-23" d="M44.67,40.57a12.19,12.19,0,0,1-5.92-1.36l.25-.53A13.51,13.51,0,0,0,45.11,40l-.21.33Z"/><path class="cls-4" d="M138.64,28l-.64-.66c-1.38-1.43-2.92-3-5.08-3.43l-.08-1.67a1.52,1.52,0,0,0,.71-1.28,1.55,1.55,0,0,0-3.1,0,1.52,1.52,0,0,0,.71,1.28L131,23.82c-2.21.29-3.75,1.73-5.25,3.12-.35.33-.72.66-1.09,1-1.63.25-3.26.75-3.26,2v0s0,0,0,.05c0,1.72,3.8,2.31,4,2.33a57,57,0,0,0,6.43.35c2.22,0,5.41-.19,6.39-.31,1.47-.19,3.5-1,3.81-2.12h0l0-.08a1.27,1.27,0,0,0,0-.27C142,28.61,140.2,28.21,138.64,28Z"/><path class="cls-35" d="M136,23.29a.25.25,0,0,1-.15,0,.25.25,0,0,1-.08-.35,4.37,4.37,0,0,0,.71-2.59,4.41,4.41,0,1,0-8.15,2.52.25.25,0,0,1-.43.27,4.92,4.92,0,1,1,8.29.07.25.25,0,0,1-.2.11Z"/><path class="cls-35" d="M135.94,23.54a.5.5,0,0,1-.27-.08.5.5,0,0,1-.15-.69,4.16,4.16,0,1,0-7-.07.5.5,0,0,1-.16.69.52.52,0,0,1-.69-.16,5.16,5.16,0,0,1,4.17-7.91H132a5.16,5.16,0,0,1,4.33,8,.5.5,0,0,1-.4.23ZM132,15.83a4.66,4.66,0,0,1,3.9,7.21h0a4.66,4.66,0,0,0-4.09-7.21A4.67,4.67,0,0,0,128.08,23a4.71,4.71,0,0,1-.71-2.29,4.67,4.67,0,0,1,4.47-4.85Z"/><path class="cls-35" d="M137.83,24.46a.36.36,0,0,1-.22-.06.37.37,0,0,1-.11-.51,6.5,6.5,0,1,0-11-.1.37.37,0,1,1-.63.4,7.25,7.25,0,1,1,12.21.11.37.37,0,0,1-.3.17Z"/><path class="cls-35" d="M124.67,29l13.53-.41c-2.27-1.84-3.15-3.67-5.84-3.87l-.14-2.89a.92.92,0,1,0-.45,0l-.26,2.87C128.62,24.86,127.13,27,124.67,29Z"/><path class="cls-36" d="M141.37,29.88a.67.67,0,0,0-.39-.58,10.16,10.16,0,0,0-2.93-.81,56.19,56.19,0,0,0-6.38-.39c-2.28,0-5.42.24-6.28.35a7.17,7.17,0,0,0-3,.89.59.59,0,0,0-.3.49s0,0,0,0a.35.35,0,0,0,0,.06.6.6,0,0,0,.24.43,6.88,6.88,0,0,0,3.08,1.3,55.62,55.62,0,0,0,6.35.35c2.26,0,5.45-.2,6.32-.31a5.24,5.24,0,0,0,3.16-1.48c.08-.14.15-.14.15-.29a.37.37,0,0,0,0-.06S141.37,29.9,141.37,29.88Z"/><path class="cls-23" d="M131.67,27.38a29,29,0,0,0-8.79,1c0,.14.68.29.75.4a38.35,38.35,0,0,1,8-.64,38.54,38.54,0,0,1,8,.66c.06-.18,1.2-.12,1.19-.2C138.85,28,137.65,27.44,131.67,27.38Z"/><path class="cls-3" d="M134.51,25.84A4.31,4.31,0,0,1,136,27.2a1,1,0,0,1-1.07-.43,5.81,5.81,0,0,0-2.23-1.43A2.6,2.6,0,0,1,134.51,25.84Z"/><circle class="cls-3" cx="131.99" cy="20.94" r="0.46"/><path class="cls-35" d="M131.79,31.66a15,15,0,0,0-3.8.48,5.24,5.24,0,0,0,3.54,1.31h.1a5,5,0,0,0,3.8-1.28A12.4,12.4,0,0,0,131.79,31.66Z"/><path class="cls-4" d="M136.18,32a.77.77,0,0,0-.53-.57,13.13,13.13,0,0,0-3.86-.55,15.68,15.68,0,0,0-4,.51.77.77,0,0,0-.34,1.28,6,6,0,0,0,4.09,1.54h.1a5.8,5.8,0,0,0,4.31-1.47A.77.77,0,0,0,136.18,32Zm-4.65,1.44A5.24,5.24,0,0,1,128,32.14a15,15,0,0,1,3.8-.48,12.4,12.4,0,0,1,3.63.51,5,5,0,0,1-3.8,1.28Z"/><path class="cls-3" d="M141.29,29.59a59.84,59.84,0,0,0-9.18-.74h-.77a59.84,59.84,0,0,0-9.2.74.47.47,0,0,0-.08.43,1,1,0,0,0,.33.42,56.75,56.75,0,0,1,9.21-.75h.22a56.76,56.76,0,0,1,9.21.75,1,1,0,0,0,.33-.42A.47.47,0,0,0,141.29,29.59Z"/><path class="cls-23" d="M198.16,10.74a2.51,2.51,0,0,1-1.5-.46.37.37,0,0,1,.5-.55,1.93,1.93,0,0,0,1.19.25.44.44,0,0,0,.3-.12c.15-.24.1-.36.09-.4-.09-.25-.51-.42-.61-.46a.37.37,0,0,1,.22-.71,1.78,1.78,0,0,1,1.09.91,1.16,1.16,0,0,1-.16,1.05,1.09,1.09,0,0,1-.83.46Z"/><circle class="cls-35" cx="132.05" cy="20.92" r="1.28"/><path class="cls-4" d="M64.68,20.73a2.19,2.19,0,0,0-1.18,1.51A2.44,2.44,0,0,0,64,24.39a2.3,2.3,0,0,0-.77,3.13,3.15,3.15,0,0,0,1.32,1.09l-.07.09-.13.15a2.23,2.23,0,0,0-.24,3,3.48,3.48,0,0,0,.67.66h0a3.8,3.8,0,0,0-.73,1.3,2.14,2.14,0,0,0,.47,1.92,2.88,2.88,0,0,1-1.56.34c-.4,0-1-.11-1.45-1.08a.73.73,0,0,0-1.39.27,3.19,3.19,0,0,0,.77,2.23,3.33,3.33,0,0,0,2.48,1h.1a3.08,3.08,0,0,0,.73-.09,1.78,1.78,0,0,0,.13.78,2.44,2.44,0,0,0,2.93,1.43A6.18,6.18,0,0,0,68.5,40l.1,0,.16,0a6.69,6.69,0,0,1-.92,3A2.16,2.16,0,0,0,68,46.11a.55.55,0,0,0,.74,0l.24-.23,0,.06a.55.55,0,0,0,.82.19C70,46,71.25,45,71,43.94a24.3,24.3,0,0,1,.14-3.6,4.12,4.12,0,0,0,1,0,3.17,3.17,0,0,0,1.7-1c0,.06.2.29.39.51a2.66,2.66,0,0,0,2,.86c.15.86.31,2.74.32,3.16a2.46,2.46,0,0,0,1.1,2,.82.82,0,0,0,.77.08.55.55,0,0,0,.31-.31l0-.07.26.2a.55.55,0,0,0,.73-.05,2.12,2.12,0,0,0-.09-3.06,7.65,7.65,0,0,1-1-2.34,3.28,3.28,0,0,0,1.06-.76c.87-.9.57-1.18.67-1.13a2,2,0,0,0,2.05-.2,2.45,2.45,0,0,0,.62-3,2.28,2.28,0,0,0,2.36-1A2.7,2.7,0,0,0,85.1,31c-.86-1-1.3-.49-1-1.14.41-.9.57-1,.38-1.88a2.33,2.33,0,0,0-2-2c-.64-.16-.85,0-1.25-.12s-.51-.45-.65-1a2.25,2.25,0,0,0-1.17-1.56A2.79,2.79,0,0,0,78,23a2.84,2.84,0,0,0-1.13.22s-.71.24-.9.06a5.45,5.45,0,0,0-.55-.48,1.93,1.93,0,0,0-1.6-.39s-.09.08.07-.19a2.38,2.38,0,0,0,.34-1.09c.06-.92-.28-1,.06-1.06s0,.39.44.87c.73.73,1.52.89,2.87.42A2.45,2.45,0,0,0,79,19.58a1,1,0,0,0,.83.73c3,.76,3.85-2.54,3-3.78A3.19,3.19,0,0,0,77.71,16a14.26,14.26,0,0,0,.42-1.47,8.27,8.27,0,0,0-.27-5.23,4.74,4.74,0,0,0-8.36,0,3.26,3.26,0,0,0,.72,3.65,2.32,2.32,0,0,0,1.4.62,1.26,1.26,0,0,0,.86-.14.54.54,0,0,0,.34-.68c-.08-.23-.3-.24-.72-.58a1.32,1.32,0,0,1-.56-.86,1,1,0,0,1,.2-.68,1.19,1.19,0,0,1,1.7-.27c.76.61.61,2.11.31,3.47-.24,1.08-.49,2-.5,2.06s-.2.41-1,.32c-.19,0-.76-1.61-.86-1.46-.33-.4-1.26,1.42-1.75,1.33-.26-.05-.36-1.14-.54-2-.6-2.22-2-5.32-5.48-5.32a6,6,0,0,0-1.11.11c-2.67.5-3.66,2.3-3.7,3.82A3.29,3.29,0,0,0,61,16a3.75,3.75,0,0,0,.88.12A2,2,0,0,0,63.5,15a.64.64,0,0,0,0-.76c-.16-.21-.42-.14-.66-.14,0,0-.2,0-.48,0a.66.66,0,0,1-.58-.28,1,1,0,0,1,0-.71,1.14,1.14,0,0,1,1.35-.76c.82.15,1.37,1.78,1.63,3.42a3,3,0,0,0-1.4,1.46,2.6,2.6,0,0,0,.68,2.9C64.15,20.32,64.68,20.73,64.68,20.73Zm14.47-1.59c.43.15,1.58-.59,1.9-.6M81.3,36.2c-1.37,1.48-3.85,2.23-7.38,2.23A34,34,0,0,1,67,37.63a.79.79,0,0,1-.57-.72L66,17.41c0-.3.24-.56.84-.5l14.34-.73c0-.08.22.15.23.44l.08,2.42a.54.54,0,0,1-.44.55,2,2,0,0,0-1.75-.65c-2.61.49-6.93.86-7,.86a.92.92,0,0,0-.9.93l0,3.47.2,0c5.54-.5,9.47,1.1,10.92,4.4A7.25,7.25,0,0,1,81.3,36.2Z"/><path class="cls-37" d="M71.69,24.18l-.2,0,0-3.47a.92.92,0,0,1,.9-.93s4.36-.37,7-.86a2,2,0,0,1,1.75.65.54.54,0,0,0,.44-.55l-.08-2.42c0-.29-.24-.52-.23-.44l-14.34.73c-.6-.06-.85.2-.84.5l.43,19.5a.79.79,0,0,0,.57.72,34,34,0,0,0,6.91.79c3.53,0,6-.75,7.38-2.23a7.25,7.25,0,0,0,1.31-7.62C81.17,25.28,77.23,23.68,71.69,24.18Z"/><path class="cls-38" d="M68.82,16.27s-.63-7.81-6.18-6.77c-4.36.82-4.18,6.06-.92,6.24,1,.05,1.54-1,1.27-1.24,0,0,.06.24-1.09-.1-1.42-.42-.46-2.68,1.37-2.55s2.36,5.72,2.36,5.72a1,1,0,0,0,1-.59c.24-.63,1.15-.51,1.49-.14S68.82,16.27,68.82,16.27Z"/><path class="cls-23" d="M65.63,17.77h0a.19.19,0,0,1-.18-.17c-.14-1.51-.82-5.46-2.18-5.55a1.73,1.73,0,0,0-1.84,1.35.7.7,0,0,0,.54.84,3.34,3.34,0,0,0,.84.17l0,0a.19.19,0,0,1,.29-.06.56.56,0,0,1,.07.63,1.51,1.51,0,0,1-1.39.93H61.7a2.69,2.69,0,0,1-2.57-2.63,3.89,3.89,0,0,1,3.47-4,5.58,5.58,0,0,1,1-.1c4.76,0,5.38,7,5.39,7a.19.19,0,0,1,0,.09c-.08.18-.37.77-.76.77h0a.41.41,0,0,1-.31-.15.91.91,0,0,0-.63-.24.55.55,0,0,0-.55.33A1.17,1.17,0,0,1,65.63,17.77Zm-2.52-6.1h.16c1.8.13,2.39,4.62,2.51,5.71a.75.75,0,0,0,.61-.46.91.91,0,0,1,.9-.56,1.27,1.27,0,0,1,.9.36c.12,0,.31-.22.43-.48-.06-.6-.79-6.65-5-6.65a5.17,5.17,0,0,0-.95.09,3.52,3.52,0,0,0-3.16,3.58,2.31,2.31,0,0,0,2.22,2.29h.06a1.15,1.15,0,0,0,1-.69l0-.09h-.07a3.79,3.79,0,0,1-.95-.19,1.07,1.07,0,0,1-.8-1.25A2.1,2.1,0,0,1,63.11,11.67Z"/><g class="cls-39"><path class="cls-3" d="M68.18,16.52s-.36-4.17-2.33-5.8c-1.44-1.19-5-1.11-5.94,1.59a4.56,4.56,0,0,1,3.32-1.83c1.85,0,3.48.87,4.2,5.61C67.43,16.09,67.91,16.67,68.18,16.52Z"/></g><path class="cls-23" d="M65,13.83l-.53-.39a4.14,4.14,0,0,1,3.19-1.57h0v.66h0A3.53,3.53,0,0,0,65,13.83Z"/><path class="cls-23" d="M63.13,11.84a4.11,4.11,0,0,1,.92-2.75l.43.5a3.41,3.41,0,0,0-.7,2.24Z"/><path class="cls-23" d="M61.25,13a3.19,3.19,0,0,1-1.47-2.07l.65-.13a2.56,2.56,0,0,0,1.12,1.62Z"/><path class="cls-23" d="M60.89,15.76l-.42-.51a3.59,3.59,0,0,0,.81-1.15l.61.26A4.24,4.24,0,0,1,60.89,15.76Z"/><path class="cls-38" d="M76.83,16.38S79.89,9,74.75,7.59c-4-1.09-6.14,2.86-4.29,4.88.9,1,2,.59,1.87.15,0,0-.44,0-.92-.72-.81-1.24,1-3.24,2.48-2.1,2,1.57-.2,6.43-.2,6.43s.43,1.16.92.71,1.61-1.14,1.74-.66S76.83,16.38,76.83,16.38Z"/><path class="cls-23" d="M74.37,17.23c-.49,0-.8-.78-.86-.94a.18.18,0,0,1,0-.14s2.09-4.74.25-6.21a1.28,1.28,0,0,0-.81-.3,1.66,1.66,0,0,0-1.38.9,1.19,1.19,0,0,0,0,1.24c.41.62.76.64.77.64a.19.19,0,0,1,.18.13.44.44,0,0,1-.07.4.91.91,0,0,1-.75.31,1.85,1.85,0,0,1-1.37-.67,2.9,2.9,0,0,1-.44-3.17,3.76,3.76,0,0,1,3.54-2.2,5.22,5.22,0,0,1,1.37.19,3.89,3.89,0,0,1,2.61,2.06c1.33,2.71-.33,6.81-.4,7l0,.05a.6.6,0,0,1-.4.2c-.11,0-.31,0-.4-.38,0,0,0,0-.07,0a3.07,3.07,0,0,0-1.37.77A.53.53,0,0,1,74.37,17.23Zm-.48-1c.12.28.33.62.48.62a.17.17,0,0,0,.11-.06,3.37,3.37,0,0,1,1.62-.87.41.41,0,0,1,.43.3.24.24,0,0,0,.05.11l.09-.06c.16-.4,1.6-4.21.4-6.65A3.53,3.53,0,0,0,74.7,7.77a4.86,4.86,0,0,0-1.28-.18,3.39,3.39,0,0,0-3.2,2,2.53,2.53,0,0,0,.37,2.77,1.49,1.49,0,0,0,1.09.55.63.63,0,0,0,.43-.13,1.74,1.74,0,0,1-.87-.76,1.55,1.55,0,0,1,0-1.62A2,2,0,0,1,73,9.27a1.64,1.64,0,0,1,1,.38C75.95,11.21,74.16,15.59,73.89,16.23Z"/><g class="cls-39"><path class="cls-3" d="M76.88,10A3.49,3.49,0,0,0,71,9.32a3.51,3.51,0,0,1,4-.55c1.56.88,2.34,2.8.87,6.93a.86.86,0,0,1,.58.34C76.82,14.88,77.68,11.77,76.88,10Z"/></g><path class="cls-23" d="M74.73,12.79l-.38-.54a4.16,4.16,0,0,1,3.5-.18l-.19.63A3.57,3.57,0,0,0,74.73,12.79Z"/><path class="cls-23" d="M74.38,10.4,73.85,10a10.27,10.27,0,0,1,2-2l.37.55A9.87,9.87,0,0,0,74.38,10.4Z"/><path class="cls-23" d="M71.82,9.85a6.4,6.4,0,0,1-.58-2l.66-.07a5.82,5.82,0,0,0,.5,1.75Z"/><path class="cls-23" d="M70.31,12.45l-.25-.61a6.7,6.7,0,0,0,1.21-.6l.38.54A7.09,7.09,0,0,1,70.31,12.45Z"/><path class="cls-3" d="M70.15,43.11a31.75,31.75,0,0,1,.46-4.76l-.89.33s-.26,3.56-1.09,4.82a3.07,3.07,0,0,0-.23.41,10,10,0,0,0,1.73.51C70.18,44.26,70.15,43.27,70.15,43.11Z"/><path class="cls-23" d="M68.2,43.92a1.31,1.31,0,0,0,.19,1.79l.69-.8.45.85a3.69,3.69,0,0,0,.84-1.32A14.83,14.83,0,0,1,68.2,43.92Z"/><path class="cls-3" d="M78.95,43.12C77.68,42,77.4,37.84,77.4,37.84l-.86.21s.77,4.44.75,5.66a1.63,1.63,0,0,0,.24.77,8.76,8.76,0,0,0,2-.52A2,2,0,0,0,78.95,43.12Z"/><path class="cls-23" d="M77.42,44.52a4,4,0,0,0,.75,1.07l.47-.64.74.52a1.76,1.76,0,0,0,.29-1.5A11,11,0,0,1,77.42,44.52Z"/><path class="cls-3" d="M65.38,36a5.66,5.66,0,0,1-2,.92,2.1,2.1,0,0,1-2.56-1.59,2.22,2.22,0,0,0,2.29,2.4,3,3,0,0,0,2.31-.89"/><path class="cls-40" d="M66.89,16.74c-.7-.06-1,.28-1,.68l-1,7.1-.2,1.89.91,2,.74,8.47a1,1,0,0,0,.71.89s10.68,2.55,14.41-1.48a6.92,6.92,0,0,0-1-10.23c-1.85-1.4-4.5-2.42-8.69-2l0-3.25a.74.74,0,0,1,.72-.74s4-.29,6.64-.79a5.42,5.42,0,0,1,2.12.15,1.44,1.44,0,0,0,1-1.08l-.31-1.73c0-.4-1.33-.62-1.43-.52Z"/><path class="cls-23" d="M73.93,38.7a34.26,34.26,0,0,1-7-.8,1.15,1.15,0,0,1-.85-1.07l-.74-8.42-.92-2,.2-1.94,1-7.11c0-.4.31-.91,1.21-.83l13.5-.73a.5.5,0,0,1,.17,0c.3,0,1.47.19,1.48.72l.31,1.7a1.29,1.29,0,0,1-.4.82,1.43,1.43,0,0,1-.82.47h-.06a5.92,5.92,0,0,0-1.43-.2,3.32,3.32,0,0,0-.61.05c-2.62.5-6.62.79-6.66.79a.56.56,0,0,0-.39.17.53.53,0,0,0-.16.38l0,3.06c3.56-.29,6.36.39,8.62,2.1a7.09,7.09,0,0,1,2.87,5.06,7.17,7.17,0,0,1-1.81,5.44C80.11,37.92,77.55,38.7,73.93,38.7Zm-9.1-12.33.91,2,.74,8.47a.8.8,0,0,0,.57.73,33.88,33.88,0,0,0,6.88.79c3.52,0,6-.75,7.35-2.22A6.8,6.8,0,0,0,83,31a6.72,6.72,0,0,0-2.72-4.8c-2.22-1.68-5-2.33-8.57-2l-.2,0,0-3.45a.89.89,0,0,1,.26-.64.91.91,0,0,1,.64-.28s4-.29,6.61-.78a3.71,3.71,0,0,1,.67-.06,6.21,6.21,0,0,1,1.5.2,1.14,1.14,0,0,0,.55-.36.94.94,0,0,0,.3-.53l-.31-1.7c0-.15-.68-.4-1.12-.4h0l0,0h-.07l-13.56.73h-.16c-.43,0-.68.19-.68.5l-1,7.13Z"/><path class="cls-40" d="M68.07,31.79a2.43,2.43,0,0,1-3.43,0,1.93,1.93,0,0,1,0-2.74,1.55,1.55,0,0,1,2.19,0,1.24,1.24,0,0,1,0,1.76,1,1,0,0,1-1.41,0"/><path class="cls-23" d="M66.37,32.8a2.74,2.74,0,0,1-2-.82,2.25,2.25,0,0,1,0-3.19,1.84,1.84,0,0,1,1.31-.54h0a1.87,1.87,0,0,1,1.33.56,1.56,1.56,0,0,1,0,2.21,1.3,1.3,0,0,1-.92.37h0a1.31,1.31,0,0,1-.93-.39.32.32,0,0,1,.45-.44.67.67,0,0,0,.48.2h0a.67.67,0,0,0,.47-.19.91.91,0,0,0,.28-.65.92.92,0,0,0-.26-.66,1.24,1.24,0,0,0-.88-.37h0a1.21,1.21,0,0,0-.86.35,1.62,1.62,0,0,0,0,2.3,2.12,2.12,0,0,0,3,0,.32.32,0,1,1,.44.45A2.74,2.74,0,0,1,66.37,32.8Z"/><path class="cls-40" d="M80,37.25a3.24,3.24,0,0,1-3.34,3.11,2.58,2.58,0,0,1-2.49-2.67,2.07,2.07,0,0,1,2.14-2,1.65,1.65,0,0,1,1.59,1.71,1.32,1.32,0,0,1-1.37,1.27,1.06,1.06,0,0,1-1-1.1"/><path class="cls-23" d="M76.73,40.65h-.12a2.86,2.86,0,0,1-2.76-3,2.38,2.38,0,0,1,2.43-2.27,1.94,1.94,0,0,1,1.87,2A1.59,1.59,0,0,1,76.48,39a1.35,1.35,0,0,1-1.29-1.39.28.28,0,0,1,.29-.28.28.28,0,0,1,.28.29.78.78,0,0,0,.74.8,1,1,0,0,0,1.08-1A1.37,1.37,0,0,0,76.26,36a1.79,1.79,0,0,0-1.84,1.72,2.3,2.3,0,0,0,2.21,2.38,3,3,0,0,0,3.05-2.84A.27.27,0,0,1,80,37a.28.28,0,0,1,.27.3A3.53,3.53,0,0,1,76.73,40.65Z"/><path class="cls-40" d="M79.18,29.34a2.74,2.74,0,0,1,2.5-3,2.19,2.19,0,0,1,2.37,2,1.75,1.75,0,0,1-1.6,1.9A1.4,1.4,0,0,1,80.94,29a1.12,1.12,0,0,1,1-1.21.9.9,0,0,1,1,.81"/><path class="cls-23" d="M82.33,30.56A1.69,1.69,0,0,1,80.65,29a1.4,1.4,0,0,1,1.28-1.52,1.18,1.18,0,0,1,1.28,1.07.28.28,0,1,1-.57,0,.61.61,0,0,0-.66-.55.83.83,0,0,0-.76.9,1.11,1.11,0,0,0,.39.76,1.14,1.14,0,0,0,.81.26,1.47,1.47,0,0,0,1.34-1.59,1.91,1.91,0,0,0-2.07-1.74,2.46,2.46,0,0,0-2.24,2.66.29.29,0,0,1-.26.31.29.29,0,0,1-.31-.26,3,3,0,0,1,2.76-3.27,2.48,2.48,0,0,1,2.68,2.26,2,2,0,0,1-1.86,2.21Z"/><path class="cls-40" d="M65.11,24.63a2.21,2.21,0,0,1-1-2,2,2,0,0,1,2.25-1.77,1.62,1.62,0,0,1,1.41,1.81,1.29,1.29,0,0,1-1.44,1.13,1,1,0,0,1-.9-1.16.83.83,0,0,1,.92-.72"/><path class="cls-23" d="M65.11,24.92a.29.29,0,0,1-.16-.05,2.5,2.5,0,0,1-1.15-2.28,2.32,2.32,0,0,1,2.57-2A1.9,1.9,0,0,1,68,22.69a1.59,1.59,0,0,1-1.76,1.38,1.34,1.34,0,0,1-1.15-1.47,1.11,1.11,0,0,1,1.24-1,.29.29,0,0,1,.25.32.29.29,0,0,1-.32.25.52.52,0,0,0-.4.11.53.53,0,0,0-.21.36.76.76,0,0,0,.66.84,1,1,0,0,0,1.12-.88,1.33,1.33,0,0,0-1.17-1.49,1.76,1.76,0,0,0-1.94,1.52,1.93,1.93,0,0,0,.91,1.74.29.29,0,0,1-.16.52Z"/><path class="cls-40" d="M71.74,26.95a2.68,2.68,0,0,1,.46-3.77,2.15,2.15,0,0,1,3,.37,1.71,1.71,0,0,1-.3,2.41A1.37,1.37,0,0,1,73,25.72a1.09,1.09,0,0,1,.19-1.54.88.88,0,0,1,1.23.15"/><path class="cls-23" d="M71.74,27.23a.28.28,0,0,1-.22-.11A3,3,0,0,1,72,23a2.44,2.44,0,0,1,3.41.41,2,2,0,0,1-.35,2.81,1.65,1.65,0,0,1-2.32-.29,1.36,1.36,0,0,1-.28-1A1.39,1.39,0,0,1,73,24a1.17,1.17,0,0,1,1.63.19.29.29,0,0,1-.45.35.59.59,0,0,0-.83-.1.81.81,0,0,0-.3.54.79.79,0,0,0,.17.6,1.08,1.08,0,0,0,1.52.19,1.43,1.43,0,0,0,.25-2,1.86,1.86,0,0,0-2.61-.32A2.4,2.4,0,0,0,72,26.77a.29.29,0,0,1-.22.46Z"/><path class="cls-40" d="M68.33,33.93c-.55-1.11-.73-3.17.62-4.23a2.49,2.49,0,0,1,3.5.42,2,2,0,0,1-.35,2.8,1.59,1.59,0,0,1-2.23-.27,1.28,1.28,0,0,1,.22-1.79,1,1,0,0,1,1.44.17"/><path class="cls-23" d="M68.33,34.22a.28.28,0,0,1-.25-.16c-.6-1.21-.78-3.42.7-4.58a2.78,2.78,0,0,1,3.9.47,2.28,2.28,0,0,1-.4,3.2,1.88,1.88,0,0,1-2.63-.32,1.56,1.56,0,0,1,.26-2.19,1.31,1.31,0,0,1,1.84.21.28.28,0,0,1-.45.36.74.74,0,0,0-1-.12,1,1,0,0,0-.17,1.39,1.31,1.31,0,0,0,1.83.23,1.71,1.71,0,0,0,.65-1.14,1.69,1.69,0,0,0-.35-1.26,2.21,2.21,0,0,0-3.1-.37c-1.22,1-1,2.88-.55,3.88a.29.29,0,0,1-.25.41Z"/><path class="cls-40" d="M79.73,34.32a2.34,2.34,0,0,1,3.09,1.4,1.87,1.87,0,0,1-1.17,2.37,1.5,1.5,0,0,1-1.9-.94,1.2,1.2,0,0,1,.75-1.51,1,1,0,0,1,1.22.6.77.77,0,0,1-.48,1"/><path class="cls-23" d="M81.17,38.48a1.81,1.81,0,0,1-1.71-1.23,1.51,1.51,0,0,1,.94-1.91,1.28,1.28,0,0,1,1.61.79,1.08,1.08,0,0,1-.68,1.36.31.31,0,0,1-.2-.59.46.46,0,0,0,.29-.58.65.65,0,0,0-.83-.4A.89.89,0,0,0,80,37.05a1.19,1.19,0,0,0,1.5.75,1.56,1.56,0,0,0,1-2,2.08,2.08,0,0,0-1.15-1.21,1.84,1.84,0,0,0-1.52,0A.31.31,0,0,1,79.6,34a2.46,2.46,0,0,1,2,0,2.67,2.67,0,0,1,1.49,1.58,2.18,2.18,0,0,1-1.37,2.76A1.79,1.79,0,0,1,81.17,38.48Z"/><path class="cls-40" d="M64.69,26.5a.9.9,0,0,0,1.2.41,1.12,1.12,0,0,0,.5-1.51,1.47,1.47,0,0,0-1.87-.62,1.66,1.66,0,0,0-.84,2.41c.67,1.32,2.31,1,3.19,1.84"/><path class="cls-23" d="M66.86,29.34a.31.31,0,0,1-.22-.09,2.92,2.92,0,0,0-1.27-.59,2.81,2.81,0,0,1-2-1.34,2.22,2.22,0,0,1-.1-1.81,1.81,1.81,0,0,1,1.13-1,1.78,1.78,0,0,1,2.25.78A1.44,1.44,0,0,1,66,27.19a1.22,1.22,0,0,1-1.62-.55.31.31,0,0,1,.56-.28.59.59,0,0,0,.78.27.81.81,0,0,0,.35-1.09,1.16,1.16,0,0,0-1.49-.46,1.19,1.19,0,0,0-.75.68A1.58,1.58,0,0,0,63.95,27a2.23,2.23,0,0,0,1.6,1,3.43,3.43,0,0,1,1.53.75.31.31,0,0,1-.22.54Z"/><path class="cls-40" d="M78,28.72a3.07,3.07,0,0,1-2.26-3.59,2.29,2.29,0,0,1,2.77-1.68,1.83,1.83,0,0,1,1.34,2.21,1.46,1.46,0,0,1-1.77,1.08,1.17,1.17,0,0,1-.86-1.42.93.93,0,0,1,1.13-.68"/><path class="cls-23" d="M78,29h-.09a3.36,3.36,0,0,1-2.44-3.93,2.56,2.56,0,0,1,1.17-1.6,2.53,2.53,0,0,1,1.94-.29,2.12,2.12,0,0,1,1.55,2.56A1.74,1.74,0,0,1,78,27a1.45,1.45,0,0,1-1.07-1.77,1.19,1.19,0,0,1,.54-.75,1.21,1.21,0,0,1,.93-.15.29.29,0,0,1-.14.55.65.65,0,0,0-.5.08.63.63,0,0,0-.29.39.88.88,0,0,0,.65,1.08,1.17,1.17,0,0,0,1.43-.87,1.55,1.55,0,0,0-1.14-1.87,2,2,0,0,0-1.51.23A2,2,0,0,0,76,25.2a2.8,2.8,0,0,0,2.07,3.25A.29.29,0,0,1,78,29Z"/><path class="cls-40" d="M72.84,20.16a3.22,3.22,0,0,1-4.2-1.76,2.58,2.58,0,0,1,1.41-3.35,2,2,0,0,1,2.68,1.13,1.63,1.63,0,0,1-.89,2.14,1.31,1.31,0,0,1-1.72-.71,1,1,0,0,1,.57-1.37"/><path class="cls-23" d="M71.62,20.74a3.57,3.57,0,0,1-3.29-2.21,2.92,2.92,0,0,1,1.59-3.79A2.38,2.38,0,0,1,73,16,2,2,0,0,1,72,18.63a1.65,1.65,0,0,1-2.16-.9,1.36,1.36,0,0,1,0-1.06,1.38,1.38,0,0,1,.75-.76.34.34,0,0,1,.26.63.71.71,0,0,0-.39.39.7.7,0,0,0,0,.54A1,1,0,0,0,71,18a1,1,0,0,0,.74,0,1.29,1.29,0,0,0,.71-1.7,1.71,1.71,0,0,0-.93-.94,1.69,1.69,0,0,0-1.3,0A2.24,2.24,0,0,0,69,18.27a2.88,2.88,0,0,0,3.76,1.57.34.34,0,0,1,.26.63A3.55,3.55,0,0,1,71.62,20.74Z"/><path class="cls-40" d="M71.48,28.4a3,3,0,0,1-4.13-1.18,2.42,2.42,0,0,1,.94-3.29,1.93,1.93,0,0,1,2.64.75,1.55,1.55,0,0,1-.6,2.11,1.24,1.24,0,0,1-1.69-.48A1,1,0,0,1,69,24.95"/><path class="cls-23" d="M70,29.06a3.32,3.32,0,0,1-2.91-1.71,2.71,2.71,0,0,1,1.05-3.68,2.22,2.22,0,0,1,3,.86A1.83,1.83,0,0,1,70.47,27a1.53,1.53,0,0,1-1.18.13,1.5,1.5,0,0,1-.9-.73,1.26,1.26,0,0,1-.11-1,1.28,1.28,0,0,1,.61-.77.28.28,0,0,1,.28.5.71.71,0,0,0-.34.43.7.7,0,0,0,.06.53.94.94,0,0,0,.56.45,1,1,0,0,0,.74-.08,1.26,1.26,0,0,0,.49-1.72,1.64,1.64,0,0,0-1-.79,1.66,1.66,0,0,0-1.27.15,2.14,2.14,0,0,0-.83,2.91,2.76,2.76,0,0,0,3.74,1.07.28.28,0,1,1,.28.5A3.31,3.31,0,0,1,70,29.06Z"/><path class="cls-40" d="M70.14,33.56a3.51,3.51,0,0,1,4,2.94,2.79,2.79,0,0,1-2.34,3.2,2.25,2.25,0,0,1-2.57-1.87,1.81,1.81,0,0,1,1.5-2.06A1.44,1.44,0,0,1,72.38,37a1.15,1.15,0,0,1-1,1.32"/><path class="cls-23" d="M71.45,40A2.53,2.53,0,0,1,69,37.87a2.11,2.11,0,0,1,1.74-2.39,1.73,1.73,0,0,1,2,1.44,1.44,1.44,0,0,1-1.2,1.64.29.29,0,1,1-.09-.56.87.87,0,0,0,.73-1,1.16,1.16,0,0,0-1.32-1,1.53,1.53,0,0,0-1.27,1.74,2,2,0,0,0,2.24,1.63,2.5,2.5,0,0,0,2.1-2.87,3.24,3.24,0,0,0-3.68-2.7.28.28,0,1,1-.09-.56,3.81,3.81,0,0,1,4.33,3.18A3.07,3.07,0,0,1,71.84,40,2.53,2.53,0,0,1,71.45,40Z"/><path class="cls-40" d="M73,29.81a4.4,4.4,0,0,1,6.23-.28,3.53,3.53,0,0,1,.22,5,2.83,2.83,0,0,1-4,.17,2.25,2.25,0,0,1-.14-3.2,1.8,1.8,0,0,1,2.54-.1,1.42,1.42,0,0,1,.09,2"/><path class="cls-23" d="M77.37,35.72a3.1,3.1,0,0,1-2.1-.81,2.53,2.53,0,0,1-.15-3.6,2.09,2.09,0,0,1,2.94-.12,1.71,1.71,0,0,1,.11,2.44.28.28,0,0,1-.42-.39,1.14,1.14,0,0,0-.07-1.62,1.52,1.52,0,0,0-2.14.08,2,2,0,0,0,.12,2.79,2.54,2.54,0,0,0,3.58-.15,3.25,3.25,0,0,0-.2-4.59,4.13,4.13,0,0,0-5.83.26.28.28,0,0,1-.42-.38,4.7,4.7,0,0,1,6.63-.3,3.83,3.83,0,0,1,.24,5.4A3.1,3.1,0,0,1,77.37,35.72Z"/><path class="cls-40" d="M80.45,32.08c.21-1.47,1.87-2,3.29-1.46a2.19,2.19,0,0,1,1.33,2.78,1.75,1.75,0,0,1-2.23,1.07A1.39,1.39,0,0,1,82,32.7,1.11,1.11,0,0,1,83.42,32,.89.89,0,0,1,84,33.15"/><path class="cls-23" d="M83.42,34.85a2,2,0,0,1-.67-.11,1.67,1.67,0,0,1-1-2.14,1.37,1.37,0,0,1,.71-.8,1.39,1.39,0,0,1,1.08-.06,1.15,1.15,0,0,1,.66.6,1.17,1.17,0,0,1,0,.9.29.29,0,0,1-.36.17.28.28,0,0,1-.17-.36.6.6,0,0,0,0-.47.59.59,0,0,0-.34-.3.83.83,0,0,0-.64,0,.81.81,0,0,0-.42.47,1.1,1.1,0,0,0,.67,1.41,1.47,1.47,0,0,0,1.87-.89,1.91,1.91,0,0,0-1.16-2.41,2.65,2.65,0,0,0-2.2.13,1.48,1.48,0,0,0-.72,1.1.28.28,0,0,1-.32.24.28.28,0,0,1-.24-.32,2,2,0,0,1,1-1.5,3.24,3.24,0,0,1,2.69-.18,2.48,2.48,0,0,1,1.51,3.14A2,2,0,0,1,83.42,34.85Z"/><path class="cls-40" d="M72.21,18.69a3.6,3.6,0,0,1,4.19-2.88,2.87,2.87,0,0,1,2.3,3.34A2.29,2.29,0,0,1,76,21a1.84,1.84,0,0,1-1.47-2.14,1.47,1.47,0,0,1,1.71-1.18,1.18,1.18,0,0,1,.94,1.38"/><path class="cls-23" d="M76.45,21.32a2.65,2.65,0,0,1-.48,0,2.12,2.12,0,0,1-1.7-2.47,1.76,1.76,0,0,1,2-1.41,1.47,1.47,0,0,1,1.17,1.71.28.28,0,0,1-.56-.1.89.89,0,0,0-.71-1,1.19,1.19,0,0,0-1.38,1,1.55,1.55,0,0,0,1.24,1.81,2,2,0,0,0,2.35-1.61,2.58,2.58,0,0,0-2.07-3,3.32,3.32,0,0,0-3.86,2.65.28.28,0,0,1-.56-.11,3.89,3.89,0,0,1,4.52-3.1A3.15,3.15,0,0,1,79,19.21a2.58,2.58,0,0,1-2.53,2.11Z"/><path class="cls-40" d="M69.33,36.93c-.33,1.45-.81,2.9-2.25,3.2a2.13,2.13,0,0,1-2.53-1.65,1.72,1.72,0,0,1,1.32-2,1.37,1.37,0,0,1,1.62,1.05,1.1,1.1,0,0,1-.84,1.3.88.88,0,0,1-1-.68"/><path class="cls-23" d="M66.62,40.46a2.42,2.42,0,0,1-2.36-1.92,2,2,0,0,1,1.54-2.37,1.66,1.66,0,0,1,2,1.27,1.39,1.39,0,0,1-1.06,1.64,1.17,1.17,0,0,1-1.38-.9.28.28,0,0,1,.56-.12.59.59,0,0,0,.7.46.82.82,0,0,0,.62-1,1.09,1.09,0,0,0-1.28-.83,1.43,1.43,0,0,0-1.1,1.69A1.85,1.85,0,0,0,67,39.85c1.18-.25,1.66-1.37,2-3a.28.28,0,1,1,.56.13c-.36,1.58-.91,3.09-2.47,3.41A2.43,2.43,0,0,1,66.62,40.46Z"/><path class="cls-40" d="M68.08,22.37a3.24,3.24,0,0,1,2.55-3.82,2.59,2.59,0,0,1,3.05,2A2.07,2.07,0,0,1,72.05,23a1.66,1.66,0,0,1-2-1.31,1.34,1.34,0,0,1,1-1.57,1.06,1.06,0,0,1,1.25.84"/><path class="cls-23" d="M71.73,23.36a2,2,0,0,1-1.91-1.57,1.63,1.63,0,0,1,1.26-1.9,1.35,1.35,0,0,1,1.59,1.07.29.29,0,0,1-.56.11.78.78,0,0,0-.92-.62,1.06,1.06,0,0,0-.82,1.23A1.38,1.38,0,0,0,72,22.76,1.79,1.79,0,0,0,73.15,22a1.76,1.76,0,0,0,.26-1.34,2.31,2.31,0,0,0-2.72-1.82,3,3,0,0,0-2.33,3.48.28.28,0,0,1-.56.11,3.53,3.53,0,0,1,2.78-4.15A2.88,2.88,0,0,1,74,20.54a2.33,2.33,0,0,1-.34,1.77,2.36,2.36,0,0,1-1.51,1A1.94,1.94,0,0,1,71.73,23.36Z"/><path class="cls-40" d="M67.84,21.21c-1.07-.14-3.51-.89-3.81-2.55A2.43,2.43,0,0,1,66,15.81a2,2,0,0,1,2.28,1.55A1.56,1.56,0,0,1,67,19.19a1.26,1.26,0,0,1-1.46-1,1,1,0,0,1,.8-1.16"/><path class="cls-23" d="M67.84,21.5h0c-1-.14-3.72-.91-4.06-2.79a2.72,2.72,0,0,1,2.17-3.18,2.24,2.24,0,0,1,2.62,1.79,1.86,1.86,0,0,1-1.47,2.17,1.55,1.55,0,0,1-1.81-1.23,1.29,1.29,0,0,1,1-1.51.29.29,0,0,1,.11.58.7.7,0,0,0-.45.3.69.69,0,0,0-.11.52A1,1,0,0,0,67,18.9a1.27,1.27,0,0,0,1-1.48A1.65,1.65,0,0,0,66,16.1a2.14,2.14,0,0,0-1.38.9,2.11,2.11,0,0,0-.33,1.6c.28,1.54,2.73,2.21,3.57,2.32a.29.29,0,0,1,0,.58Z"/><path class="cls-40" d="M70.34,35.9c-1.6.57-3.19,1.29-4.48.55a2.24,2.24,0,0,1-1-3.11,2.08,2.08,0,0,1,2.88-.64,1.39,1.39,0,0,1,.37,1.91,1.11,1.11,0,0,1-1.53.31.88.88,0,0,1-.24-1.22"/><path class="cls-23" d="M67.11,37.06a2.72,2.72,0,0,1-1.39-.35,2.54,2.54,0,0,1-1.11-3.49,2,2,0,0,1,1.29-1,2.56,2.56,0,0,1,2,.27,1.68,1.68,0,0,1,.7,1.07,1.64,1.64,0,0,1-.25,1.24,1.4,1.4,0,0,1-1.94.39,1.19,1.19,0,0,1-.5-.77,1.14,1.14,0,0,1,.18-.87.29.29,0,1,1,.48.33.56.56,0,0,0-.09.43.6.6,0,0,0,.25.39.82.82,0,0,0,1.13-.23,1.07,1.07,0,0,0,.16-.81,1.09,1.09,0,0,0-.45-.7,2,2,0,0,0-1.53-.2,1.39,1.39,0,0,0-.92.72A2,2,0,0,0,66,36.2c1,.59,2.33.12,3.72-.39l.52-.19a.29.29,0,0,1,.2.55l-.51.19A8.67,8.67,0,0,1,67.11,37.06Z"/><path class="cls-40" d="M77.82,16.25a2.82,2.82,0,0,1,4-.2A2.25,2.25,0,0,1,82,19.23a1.8,1.8,0,0,1-2.55.14,1.45,1.45,0,0,1-.11-2,1.16,1.16,0,0,1,1.63-.08"/><path class="cls-23" d="M80.62,20.13a2.06,2.06,0,0,1-1.4-.54,1.74,1.74,0,0,1-.13-2.46,1.45,1.45,0,0,1,2-.1.29.29,0,0,1-.39.43.87.87,0,0,0-1.22.06,1.16,1.16,0,0,0,.09,1.63A1.5,1.5,0,0,0,81.75,19a2,2,0,0,0-.14-2.77,2.55,2.55,0,0,0-1.84-.65,2.5,2.5,0,0,0-1.74.83.29.29,0,1,1-.43-.39,3.08,3.08,0,0,1,2.14-1,3.14,3.14,0,0,1,2.26.8,2.54,2.54,0,0,1,.18,3.6,2.07,2.07,0,0,1-1.45.7Z"/><circle class="cls-10" cx="114.07" cy="11.38" r="1.28"/><circle class="cls-3" cx="114.06" cy="11.4" r="0.79"/><circle class="cls-3" cx="132.06" cy="20.94" r="0.79"/></g></g></svg>